<svg viewBox="0 0 512 512">
  <path d="M483 387c-11-8-23-12-35-12-47-31-78-54-96-72l-54-55 33-37c9 5 21 8 32 8 7 0 8 0 15 6-3 2-5 7-5 11s2 9 5 13l30 29c4 6 11 8 18 8s14-2 18-8l60-61c6-4 8-11 8-18s-2-13-8-18l-29-30c-4-3-8-5-12-5s-9 3-12 5c-7-6-7-7-7-14 0-4 0-8-2-13-2-12-8-24-17-33l-31-31c-18-18-26-26-49-37C295 0 245 5 172 38c-5 2-6 5-6 9s5 7 9 7h11c38 0 57 0 91 34 15 15 16 38 2 55l-4 2-38 43-29-29c-31-32-53-61-70-94-1-40-37-70-76-65l-6 5v8l24 43c-5 11-17 18-29 17L27 32c-1-3-5-4-7-4-3-1-5 0-7 3a67 67 0 0 0 18 93c9 8 22 12 34 13h1c33 17 63 39 94 71l32 30L10 441a36 36 0 0 0 0 50l12 12c14 13 35 12 49-1l181-203 53 53c18 18 41 49 71 95 2 36 32 64 68 64h7c2 0 5-2 6-5s2-6 0-8l-24-42c6-11 17-18 30-17l23 41c1 2 5 4 7 4l8-4c20-31 12-72-18-93ZM288 74c-27-26-47-34-70-37 48-15 84-15 120 2 20 8 27 15 45 33l31 31c7 6 11 15 12 24l1 10c0 9 1 16 11 26 3 4 8 5 13 5s9-1 12-5l29 30c3 0 3 12 0 12l-60 61c-4 3-9 3-12 0l-30-30c3-3 5-7 4-12 0-4-1-9-5-13-9-9-17-11-26-11l-11-1c-9-1-17-5-23-12l-37-37c19-23 17-55-4-76ZM21 54l17 31 7 4h5c19 1 37-9 46-26l1-5c2-2 2-5 0-7L79 18c23 5 41 25 42 49l-1 2-1 12a52 52 0 0 1-79 29 52 52 0 0 1-19-56Zm151 142c-25-27-51-47-78-63l14-7c12-9 21-20 26-34 16 28 37 53 62 79l30 29-23 26-31-30ZM59 489c-7 7-18 8-25 1l-12-11c-3-3-5-8-5-12 0-5 2-9 6-14l16-18 23-25 219-245 36 35-35 40-39 43L59 489Zm205-203 23-26 55 55c16 16 42 37 80 62l-15 8c-9 7-18 16-23 26l-3 7-1 2-14-20-20-28-28-32-54-54Zm228 171-17-31c1-1-4-3-14-5-19-2-35 9-44 27 0 0-2 4-1 12l18 33c-23-5-40-24-42-48l1-3a51 51 0 1 1 99 15Z" />
</svg>
