<svg xmlns="http://www.w3.org/2000/svg" viewBox="0 0 216 57"><path d="M216 5.2a2.2 2.2 0 1 1-4.5 0 2.2 2.2 0 0 1 4.5 0Zm-2.3-1.9a2 1.9 0 0 0 0 3.79c1 0 2-.85 2-1.9s-.85-1.9-1.9-1.9Zm.98 1.4c0 .34-.35.65-.71.65.2.1.3.2.9 1h-.5c-.4-.6-.5-1-1-1h-.2v1h-.4V4h1c.7 0 1 .4 1 .7m-1.6.4h.5c.4 0 .6-.1.6-.4s-.2-.4-.6-.4h-.5v.8m-3.7 21.3h-25V3H209v4.2h-19v5h13v4.3h-13V22h19v4.4ZM25 22H5.6v-5.4h13v-4.2h-13V7.3h19V3H0v23.3h25V22ZM72.2 7.5h11.2V3.1h-28v4.4h11.2v18.9h5.6V7.5Zm79.5-4.4h14.8c9 0 14 4 14 11.6 0 4.6-2.1 7.7-5.5 9.7-2.3 1.5-5.6 2-10 2h-13.3V3Zm12.6 18.7c7.1 0 10.6-1.1 10.6-7.2 0-5-3-7-8.3-7h-9.2v14.2h6.9Zm-41.9 4.6h-5.6L130.4 3h5.6l13.9 23.3h-6.4l-2.9-4.7h-15.3l-2.8 4.7Zm5.3-9h10.6L133 7.8l-5.4 9.4Zm-35 9H87V3h18.7c5.3 0 8.7 3.1 8.7 7.6 0 3.7-1.8 6-5.2 7l5.8 8.7h-6.3l-5.6-8.3H92.7v8.3Zm0-12.7h12.5c2.4 0 3.8-1.2 3.8-3.1 0-1.8-1.4-3-3.8-3H92.6v6Z"/><path fill="#0f8ec7" d="M56 18H46l5 8.5-5.4 3-4-7.2 4.3-7.6-4.3-7.5L45.5 0l5.4 3-5 8.5h10v6.3z"/><path fill="#63c" d="M44.2 14.7 35.7 0l-5.4 3 5 8.5h-9.8v6.3h9.8l-5 8.5 5.4 3 8.5-14.8z"/><path d="M205.9 49.9v.1-.1l-2.6-7.3H202l3.3 9.4c-.2 1-.8 2-1.3 2.4-.5.3-1 .3-1.3.3l-.7-.1v1.1l1 .2a3 3 0 0 0 1.7-.6c.6-.4 1.3-1.5 1.6-2.5l3.3-10.2H208l-2 7.2Zm-5-2.3v-.9c0-1.5-.4-2.7-1.2-3.4-.6-.6-1.5-.9-2.7-.9a4 4 0 0 0-1.7.4c-.5.2-1 .5-1.3 1-.7.8-1 2-1 3.5 0 1.7.4 3 1.3 3.8 1 .9 2 1 3 1 2 0 3-1 3.5-2.1l-1.2-.6c-.3.7-1 1.6-2.4 1.6-.8 0-1.5-.3-2-1a4 4 0 0 1-.7-2.4h6.4Zm-1.4-1.2h-5c.2-1.9 1-2.8 2.5-2.8 1.7 0 2.5.9 2.5 2.8ZM115.2 44c-.7-1-1.7-1.5-3-1.5s-2.3.5-3 1.5c-.7.8-1 2-1 3.4s.3 2.6 1 3.5c.7.9 1.8 1.4 3 1.4s2.3-.5 3-1.4c.7-1 1-2.1 1-3.5s-.3-2.6-1-3.4Zm-3 7.1c-1.6 0-2.5-1.4-2.5-3.7s1-3.7 2.5-3.7 2.5 1.4 2.5 3.7-1 3.7-2.5 3.7Zm3-7.1c-.7-1-1.7-1.5-3-1.5s-2.3.5-3 1.5c-.7.8-1 2-1 3.4s.3 2.6 1 3.5c.7.9 1.8 1.4 3 1.4s2.3-.5 3-1.4c.7-1 1-2.1 1-3.5s-.3-2.6-1-3.4Zm-3 7.1c-1.6 0-2.5-1.4-2.5-3.7s1-3.7 2.5-3.7 2.5 1.4 2.5 3.7-1 3.7-2.5 3.7Zm7.4-4.3c.3-2 1.3-2.8 3-2.8v-1.4c-1.4 0-2.3.6-3 2v-1.9H118V52h1.5v-5.3Zm36-4.4c0-.6.2-1 .6-1.4.4-.4 1-.5 1.7-.5s1.4.2 2 .6c.4.4.8 1 1 1.6l1.3-.2c-.6-2-2-3.3-4.3-3.3-1.1 0-2.1.3-2.8 1-.7.6-1 1.4-1 2.3 0 1 .3 1.8 1.2 2.4a8 8 0 0 0 2.6 1.3c1.7.6 3.3 1.1 3.3 2.6 0 .7-.3 1.2-.7 1.6-.5.5-1.2.7-2 .7-1.6 0-2.8-1-3.4-2.6l-1.4.4a7 7 0 0 0 1.6 2.3 4 4 0 0 0 3 1.1c1.6 0 2.7-.4 3.5-1.2.8-.8 1-1.8 1-2.5a3 3 0 0 0-1.4-2.5 9 9 0 0 0-2.8-1.3c-1.5-.5-3-1-3-2.4Zm9.5 1.5h-1.4v-1.2h1.4v-3h1.4v3h1.6v1.2h-1.6v6.4c0 .4.1.8 1.1.8h.5v1l-1 .2c-.6 0-1.1-.1-1.5-.3-.3-.3-.5-.6-.5-1.2v-7Zm25.3 6.4c0 .4.2.8 1.1.8h.5v1l-1 .2c-.6 0-1.1-.1-1.4-.3-.3-.3-.6-.6-.6-1.2V39h1.4v11.2Zm-46.3-5.1c.5-.6 1.6-1.5 2.6-1.5s1.5.5 1.5 1.7V52h1.5v-6.9c0-2-1.5-2.7-2.8-2.7-1 0-2 .5-2.8 1.4v-1.2h-1.5V52h1.5v-7Zm-5.4 5.8c0 .5.2.8.6 1 .4.2 1 .2 1.3.1v-1c-.3 0-.5-.2-.5-.6v-5.1c0-1-.4-1.7-1-2.2a4 4 0 0 0-2.3-.6 3.7 3.7 0 0 0-3.5 2l1.1.6c.2-.4.8-1.5 2.4-1.5 1.2 0 1.9.6 1.9 1.7v.5l-.6.1c-1.7.2-2.9.5-3.7 1-1 .6-1.5 1.5-1.5 2.6a2.8 2.8 0 0 0 2.8 2.7c1.5 0 2.5-.6 3-1.3Zm0-1.6c0 .8-1.6 1.8-2.8 1.8-.7 0-1.4-.6-1.5-1.5-.1-1.6 1-2.2 3.6-2.5.2 0 .5 0 .7-.2v2.4Zm36.7 1.6c0 .5.2.8.6 1 .4.2 1 .2 1.3.1v-1c-.3 0-.5-.2-.5-.6v-5.1c0-1-.4-1.7-1.1-2.2a4 4 0 0 0-2.2-.6 3.7 3.7 0 0 0-3.5 2l1.1.6c.2-.4.8-1.5 2.4-1.5 1.2 0 1.9.6 1.9 1.7v.5l-.6.1c-1.7.2-2.9.5-3.7 1-1 .6-1.5 1.5-1.5 2.6a2.8 2.8 0 0 0 2.8 2.7c1.5 0 2.5-.6 3-1.3Zm0-1.6c0 .8-1.6 1.8-2.8 1.8-.7 0-1.4-.6-1.5-1.5-.1-1.6 1-2.2 3.6-2.5.2 0 .5 0 .7-.2v2.4Zm-74.7.2-3.1-10.2H95V52h1.5V40.4L100 52h1.2l3.5-11.6V52h1.5V39.3h-2.5l-3 10.2h-.1Zm80.1-4.4c.5-.6 1.6-1.5 2.6-1.5s1.5.5 1.5 1.7V52h1.5v-6.9c0-2-1.5-2.7-2.8-2.7-1 0-2 .5-2.8 1.4v-1.2h-1.5V52h1.5v-7Zm-50.9-2.5-.3 1a2.8 2.8 0 0 0-2.3-1.1c-1.7 0-4 1-4 4.8s2.3 4.9 4 4.9a3 3 0 0 0 2.3-1.3v1.8c0 1.2-1 2-2.2 2s-2.1-.2-3-.6v1.3c.7.3 1.8.5 2.8.5 2.6 0 3.9-1.5 3.9-3.5v-9.8H130Zm-.3 6.7c-.4 1-1.4 1.7-2.2 1.7-1.5 0-2.6-1-2.6-3.7 0-2.4 1-3.7 2.6-3.7.8 0 1.5.4 2.2 1.2v4.5ZM56.9 52v-8.2h-1.4v-1.2h1.4v-.9c0-1.7.7-2.6 2.5-2.6l.9.1v1.2h-.7c-.8 0-1.2.2-1.2 1.2v1h1.8v1.2h-1.8V52h-1.5Zm17.3-8.1c-.8-1-1.8-1.5-3-1.5s-2.3.5-3 1.5c-.7.8-1.1 2-1.1 3.4s.4 2.6 1 3.5c.8.9 1.8 1.4 3 1.4s2.3-.5 3-1.4c.8-1 1.1-2.1 1.1-3.5s-.3-2.6-1-3.4Zm-3 7.1c-1.6 0-2.6-1.4-2.6-3.7s1-3.7 2.6-3.7 2.5 1.4 2.5 3.7-1 3.7-2.5 3.7Zm15.6-8.5c-1 0-1.9.5-2.7 1.4l-.2.2c-.4-1.2-1.6-1.6-2.6-1.6s-2 .5-2.8 1.4v-1.3H77V52h1.5v-7c.5-.5 1.6-1.4 2.6-1.4s1.5.5 1.5 1.7V52h1.5v-6.9c.5-.6 1.6-1.5 2.6-1.5s1.5.5 1.5 1.7V52h1.5v-6.8c0-2-1.5-2.7-2.9-2.7Zm-23.4 4.2c.3-2 1.4-2.8 3.1-2.8v-1.4c-1.5 0-2.3.6-3.1 2v-1.9h-1.5V52h1.5v-5.3Z"/></svg>