<svg xmlns="http://www.w3.org/2000/svg" viewBox="0 0 257 103"><g fill="none" fill-rule="evenodd"><g fill="#99ABC4"><path d="m.34 53.49 3.68 4.56 1.77 1.05 2.63-.72 2.73 1.39 2.59-.43 1.67-.81 6.56 2.3-.91 2.44 3.44 6.14-.76 1.48-2.11.82.05 2.49 1.29 1.01.43 3.78.91.39-.19 1.24.91.39.1 2.78 5.98-.24 5.41-2.45 1.34-2.06 2.05-.53 1.06-3.06 5.17-1.54.47-2.78-1.43-.67.48-2.49 2.44-2.35 5.17-1.53 4.59-3.69.34-2.16-1.97-.15-1.1.58h-4.5l-2.05-2.35-2.78-1.44.38-2.15-.71-1.54-1.87-.81-.62-2.5 1.48.44-.19-1.92-2.44-.15-1.1.53-5.7-1.34-1.58.24-.71 1.2-2.21-1.73-3.35-.81 1.77-1.49-1.91-.43-8.85-.57-.53.28-2.44-.48-1.53.2-.19.95-2.54.48-2.97 2.59-3.01.43-3.26 2.02.05 2.44-1.43 2.73" opacity=".35"/><path fill-rule="nonzero" d="m25.13 84.03-.3-.24-.09-2.6-.76-.28-.2-.29.15-1.05-.72-.29-.14-.2-.43-3.68-1.2-.96-.1-.2-.04-2.48.19-.24 2-.77.68-1.3-3.4-6.04v-.23l.81-2.21-6.17-2.16-1.63.82-2.58.43-.14-.05-2.64-1.34-2.53.72-.2-.05-1.86-1.1-3.69-4.56-.04-.28 1.38-2.69-.04-2.4.14-.23 3.4-2.02 2.92-.38 2.92-2.59.14-.05 2.34-.43.15-.76.24-.24 1.53-.2h.1l2.34.44.48-.24.14-.05 8.86.57 1.91.43.1.48-1.34 1.15 2.92.77 1.96 1.53.57-.95.2-.15 1.57-.24h.1l5.65 1.3 1-.48.14-.05 2.44.14.24.24.2 1.87-.34.29-1.05-.29.48 1.92 1.77.72.14.14.72 1.58v.15l-.34 1.96 2.68 1.4 2.01 2.25h4.26l1.06-.58.14-.05 2 .15.25.28-.34 2.16-.1.15-4.68 3.73-5.12 1.54-2.35 2.25-.43 2.2 1.25.58.14.29-.48 2.78-.2.19-5.02 1.49-1 2.92-.2.2-1.95.47-1.3 2.01-.1.1-5.45 2.5-6.12.38Zm-.72-3.55.72.29.19.24.1 2.54 5.69-.2 5.26-2.4 1.3-2 .14-.1 1.96-.48 1-2.92.2-.2 5.02-1.48.38-2.4-1.24-.57-.14-.3.48-2.48.1-.15 2.53-2.4 5.12-1.53 4.5-3.6.28-1.77-1.62-.1-1.15.58h-4.45l-.2-.1-2.05-2.3-2.73-1.38-.14-.3.38-2.1-.62-1.39-1.77-.77-.15-.19-.62-2.5.34-.33 1.1.3-.15-1.3-2.15-.15-1 .48h-.2l-5.7-1.3-1.38.2-.67 1.1-.38.1-2.16-1.68-3.25-.81-.1-.48L28.52 43l-1.38-.3-8.76-.57-.48.24-.2.05-2.39-.48-1.29.14-.14.77-.2.2-2.48.42-2.92 2.6-.14.04-2.97.38-3.11 1.87.05 2.3-.05.15L.72 53.4l3.54 4.4 1.67.97 2.54-.72h.2l2.62 1.39 2.5-.39 1.62-.81h.2l6.55 2.3.14.33-.86 2.35 3.4 6.04v.24l-.77 1.54-.14.14-1.92.72.05 2.16 1.15.95.1.2.43 3.64.76.29.15.28-.24 1.06Z"/><path d="m48 74.68-.67 1.2-.09.33-.72 1.49-1.05.24.38 1.01 2.73 1.39 1.58-.53.33-2.16 2.78-1.68.19-1.24.96-.29.28-1.53-1.48.24-1.15 1.15-4.07.38" opacity=".35"/><path fill-rule="nonzero" d="M48.67 80.57h-.19l-2.73-1.39-.14-.14-.34-.96.2-.33.9-.2.67-1.39.1-.33.67-1.2.2-.14 3.96-.39 1.1-1.1.15-.1 1.48-.19.29.3-.29 1.53-.19.19-.81.19-.2 1.1-.14.2-2.68 1.62-.29 2.02-.14.19-1.58.52Zm-2.63-1.82 2.54 1.3 1.34-.43.28-1.97.15-.2 2.68-1.62.19-1.15.19-.2.81-.18.2-1.01-1.06.14-1.1 1.1-.14.1-3.93.38-.57 1.06-.05.33-.72 1.54-.19.14-.76.2.14.47Z"/><path d="m44.51 48.22 3.01 2.73.34.96 3.73 3.98 4.45.29 6.22-1.49.1-.57 1.2-.87-3.21-1.77-1.53.19-2.68-2.01-.19-1.54 5.36 3.12 9.71 1.58-.72 1.15 1.49.43 1.53-.19-.67 1.2 1.05 2.25-.09.63 1.96 2.92 2.15-.77 3.02-3.26 3.68-.67 2.78-2.01.67 1.92.86.67.29 1.29.91.39 1.14-.87 1.44 3.21-.38 2.11 1.58 2.59 1.82 1.1-.67-2.25-1.68-1.68.43-2.44 1.39.43.43 1.34 1.67 1.25 3.83-2.25.29-1.54-1.29-1.63-1.87-.43 2.25-1.44.43.39 5.08-.67 3.78-1.92 1.29-1.73-.96-.38-1.1-2.25.91-2.45-1.53.82-1.01-.67.24-1.25 2.16-1.06.91.58 1.57-.43-.38 2.16 1.87.76-.15.91.77 1.3 1.77-1.44-2.06-2.97 2.49-2.69.77 1.01 3.63-3.45.34-4.99-1.2-1.96-1.86-.72 1.29-3.84 5.07-1.05 1.25 1.01 7.18-4.51-.34 1.87-2.97 3.21-.28 1.82 1.34 3.5 1.48.43.53 2.21 1.67-3.93 1.05-.24-1.67-1.97-.19-3.35 3.73-1.39 2.25-2.97 1.53-.2-2.54-2.87 5.56-.38 1.67-1.11-1.96-.81 1.72-.29-1.72-1.25-1.72.53-5.89-3.21-2.01.19-3.78-.91-2.16.82 2.64 1.77-5.27-.72-4.64.58-9.62-1.83-1.29-1-2.15 1.1.76 1.34-4.11.96-5.6-2.88-2.54.48-3.4-.57-5.17 1.58-.24-1.92 2.25-1.1-.14-2.2-3.97-.24-1.63.81-1.1-1.72-2.11.24-1.48 2.49-4.31 2.44 1.53.82-3.73.62 3.54 2.4-1.63 1.05-4.25-1.72.23 1.87 3.55 2.39-2.49-.29-3.5 2.11 1.63-2.39-1.2-4.8-1.1.34-.52 2.4.81 2.2-3.21-1.44-1.53-.09.29 1.24-9.57.48-1.68 1.63-4.26 1.58-1.1-2.44 2.78.09.43-1.48-5.07-1.2-1.25-1.01-7.85 1.06-.95 1.2-7.47 4.31.05.67-.81.82.09 2.2 1.58-.19 1.15-.86 2.44 2.97 1.05-.24.19-1.25 2.11-.81-1.15-1.92.67-.91 1.44.1 1.43-2.4 1.53-.19 1.3 1.34-2.78 1.63.1 1.49 4.49-.48.91 1.15-6.31 2.01-.58.91-4.59.82-2.97-.2.91-2.15-2.2.81-.14.91-1.97.19-2.39 2.35-4.55.34-.04.53 1.48.14-.96 2.44-2.01.2-2.92-.53-.95 2.73 1.24 1.34 3.97.24 2.35-2.3 5.17-1.24 5.07 2.78-.19 1.77 1.1-1.25h1.15l.09-.57-4.35-2.21 1.15-.57 2.39.48-.14.62 2.29 1.39-.09 1.1 1.38.24-.62.91 1.44.39.62-.58-.33-1.29 2.87.52.28 1.59 3.69 1.48 2.06-.62 1 .19-2.39 2.35.24 1.82" opacity=".35"/><path fill-rule="nonzero" d="m95.38 67.1-1.91-1.14-1.58-2.64-.05-.2.38-2-1.24-2.83-.91.67-.24.05-.9-.39-.15-.19-.29-1.2-.77-.62-.1-.15-.52-1.58-2.58 1.82-3.64.68-3.06 3.25-2.16.77-.28-.1-1.97-2.92-.04-.19.1-.53-1.06-2.2v-.24l.43-.72-.96.14h-.1l-1.48-.43-.14-.38.53-.82-9.43-1.58-4.88-2.83.14.87 2.49 1.91 1.39-.19.14.05 3.26 1.77.04.43-1.1.82-.1.48-.18.2-6.27 1.48-4.45-.3-.2-.09-3.83-4.07-.33-.91-2.92-2.69-.1-.14-.23-1.77.1-.24 2-2.02-.43-.1-2 .63h-.2l-3.7-1.52-.14-.2-.24-1.38-2.3-.39.2.86-.1.24-.62.58-.24.05-1.44-.39-.14-.43.38-.57-1-.15-.24-.28.1-.91-2.16-1.3-.14-.29.1-.33-2.02-.43-.62.28 3.88 1.97.14.29-.14.52-.24.2-1 .04-1.06 1.15-.48-.19.2-1.63-4.84-2.63-5.03 1.15-2.3 2.3-.19.1-3.97-.25-.19-.1-1.24-1.33-.05-.3.96-2.72.28-.2 2.87.53 1.82-.19.77-1.97-1.1-.1-.2-.18.05-.53.24-.24 4.45-.34 2.3-2.3.14-.04 1.78-.15.14-.72.2-.19 2.14-.81.34.33-.77 1.82 2.59.15 4.4-.77.53-.81.14-.1 5.98-1.87-.62-.77-4.35.48-.3-.24-.09-1.53.15-.24 2.49-1.49-.96-1-1.3.19-1.38 2.25-.24.15-1.3-.1-.47.62 1.1 1.78-.14.43-2.01.72-.2 1.1-.19.24-1.05.24-.24-.1-2.3-2.78-.95.72-.1.05-1.53.2-.29-.25-.14-2.16.1-.19.76-.72-.05-.57.15-.24 7.41-4.27.91-1.15.2-.1 7.84-1.05.2.05 1.2 1 5.02 1.16.19.33-.43 1.49-.24.19-2.4-.1.82 1.83 3.97-1.49 1.68-1.58.19-.1 9.23-.48-.19-.96.29-.33 1.63.1 2.63 1.2-.58-1.64v-.14l.53-2.44.2-.2 1.04-.28.34.19 1.2 4.8-.05.18-.96 1.4 2.49-1.5.2-.04 1.38.19-2.63-1.77-.1-.2-.24-1.86.38-.3 4.12 1.69 1.15-.77-3.26-2.16.1-.48 2.97-.48-.86-.43v-.48l4.26-2.4 1.43-2.44.2-.14 2.1-.24.24.1 1 1.53 1.4-.72.13-.05 3.98.29.24.24.14 2.2-.14.24-2.06 1.06.14 1.39 5.03-1.49 3.35.53 2.49-.43.19.04 5.45 2.83 3.69-.86-.58-1 .1-.39 2.15-1.1.29.05 1.24 1 9.53 1.78 4.64-.58 4.12.53-1.68-1.1.05-.48 2.15-.82h.15l3.73.86 1.96-.19.15.05 5.83 3.16 1.63-.48.24.05 1.68 1.2-.1.48-.81.14 1.1.48.04.48-1.67 1.1-.14.05-5.03.34 2.2 2.44-.14.43-1.44.2-2.2 2.92-.14.1-3.6 1.29.2 3.07 1.63 1.87-.15.43-.95.19-1.63 3.83-.48-.04-.53-2.06-1.29-.39-.19-.14-1.39-3.5v-.14l.29-1.83.05-.14 2.92-3.16.19-1.2-6.7 4.22h-.29l-1.15-.96-4.78 1-1.15 3.46 1.58.62.14.1 1.2 1.96.05.14-.34 4.99-.1.19-3.63 3.45-.39-.05-.62-.76-2.1 2.3 1.91 2.78-.05.33-1.77 1.44-.38-.05-.77-1.3-.04-.18.1-.72-1.68-.67-.15-.29.29-1.73-1.15.34-.24-.05-.76-.53-1.92.96-.14.96.67.48 1.43-.77.39.34-.86 2.35 1 2.06.81.33.1.39-1.39 1.82-3.87 1.96-5.03.68-.2-.05-.33-.24-1.53 1 1.25.3.14.09 1.24 1.63.05.19-.28 1.53-.15.2-3.83 2.25h-.28L95 62.55l-.1-.14-.38-1.2-.96-.29-.33 2.02 1.63 1.67.67 2.2-.15.3Zm-1.48-1.48 1.2.72-.44-1.54-1.62-1.62-.1-.24.43-2.45.34-.2 1.38.4.2.18.43 1.3 1.43 1.1 3.6-2.06.23-1.3-1.15-1.48-1.77-.43-.1-.48 2.2-1.44h.3l.38.29 4.88-.62 3.68-1.87 1.06-1.4-.62-.23-.15-.15-1.1-2.25v-.2l.67-1.81-.96.48h-.28l-.96-.67-.1-.24.24-1.25.15-.2 2.15-1.05h.24l.81.53 1.44-.43.33.29-.33 1.96 1.67.67.15.29-.15.82.58.95 1.34-1.1-1.87-2.73v-.34l2.44-2.68h.39l.62.77 3.35-3.22.33-4.79-1.1-1.82-1.77-.67-.14-.34 1.29-3.83.2-.2 5.06-1.05.24.05 1.1.91 7.04-4.4.38.28-.28 1.87-.05.14-2.92 3.17-.29 1.67 1.3 3.36 1.33.38.2.2.33 1.43 1.34-3.21.2-.14.61-.15-1.38-1.63-.05-.14-.2-3.36.2-.28 3.68-1.35 2.2-2.92.2-.1 1.05-.14-2.2-2.5.19-.42 5.5-.39 1.2-.81-1.53-.62.04-.53 1.1-.2-1.1-.76-1.57.48h-.2l-5.83-3.16-1.92.14h-.1l-3.68-.86-1.63.62 2.2 1.44-.19.48-5.21-.72-4.6.57h-.1l-9.7-1.82-1.2-.9-1.73.9.62 1.06-.19.38-4.11.96h-.2l-5.5-2.83-2.54.43-3.35-.53-5.16 1.54-.34-.24-.19-1.87.14-.29 2.06-1.05-.1-1.78-3.68-.24-1.53.82-.34-.1-1.05-1.58-1.82.24-1.39 2.4-.1.1-3.92 2.2 1.1.57-.1.48-3.1.53 3.01 2.01v.43l-1.62 1.1-.24.05-3.83-1.58.14 1.35 3.45 2.34-.2.48-2.39-.33-3.44 2.06-.34-.38 1.58-2.3-1.1-4.42-.67.2-.48 2.2.77 2.16-.38.33-3.16-1.43-1.1-.05.19.9-.24.34-9.48.48-1.72 1.59-4.26 1.58-.34-.15-1.1-2.44.24-.38 2.59.1.28-1.02-4.92-1.2-1.15-.95-7.61 1.05-.96 1.15-7.32 4.12.05.53-.1.2-.77.71.1 1.78 1.2-.15 1.1-.81.38.05 2.35 2.82.71-.14.15-1.05.19-.2 1.82-.67-1-1.68v-.28l.66-.91.24-.1 1.25.1 1.38-2.26.2-.14 1.53-.2.24.1 1.24 1.35-.05.43L38 26.22l.1 1.05 4.2-.48.25.1.9 1.2-.14.43-6.27 1.97-.52.81-.2.14-4.5.67-3-.19-.25-.38.67-1.58-1.43.53-.15.76-.24.24-1.86.15-2.3 2.3-.2.1-4.3.28v.05l1.2.14.24.34-.91 2.44-.24.2-2.01.19h-.1l-2.68-.48-.81 2.4 1.05 1.14 3.73.24 2.25-2.25.15-.05 5.21-1.2.2.05 5.07 2.78.14.29-.1.96.58-.63.2-.1.9-.04.05-.14-4.16-2.11v-.48l1.14-.58.2-.04 2.39.47.19.34-.1.43 2.11 1.3.14.24-.1.86 1.2.19.2.43-.44.62.96.24.38-.38-.28-1.1.28-.34 2.88.48.19.24.24 1.44 3.44 1.44 2.1-.63 1.01.2.15.43-2.3 2.3.24 1.58L47.9 51l.33.91 3.64 3.84 4.3.28 5.99-1.43.1-.44.09-.14.86-.62-2.77-1.54-1.44.2-.2-.05-2.8-2.16-.1-.2-.23-1.53.38-.28 5.31 3.06 9.67 1.59.2.38-.53.86 1.1.29 1.43-.2.3.4-.63 1.1 1.05 2.15v.15l-.1.52 1.82 2.64 1.87-.67 2.97-3.17.14-.1 3.64-.71L87 54.16l.38.15.62 1.87.77.62.1.14.28 1.15.62.3 1.06-.77.38.1 1.43 3.2v.15l-.38 2 1.63 2.55Z"/><path d="m97.54 78.56-.91 2.73-1.54-.09 1.06 3.21-1.29 1.15.76 1.87 4.12-.91.86.62 1.1-.19.09-.62 2.45.38h3.39l1.87.72-.14 1.05 1.38.48 2.11-.67-2.3 1.44.96.38 1.15-.19.86.29-1.1.53-.19 1.24 4.21 1.58 3.54-.43 5.17-4.36.38-2.44-2.58-5.13-1.34-3.88h-.53l.15 2.49-1.3 1.48-3.44-3.02.09-.62-2.15-2.06-.57.62-1.49-.09-1.1.52-.67.91-.96-.38-.28-.91-3.21 1.58-1.44-.38-1.24 1.49-3.06.43-2.87-.82" opacity=".35"/><path fill-rule="nonzero" d="M116.49 93.8h-.15l-4.2-1.53-.2-.29.14-1.24.15-.2.52-.23-.19-.05-1.1.19h-.14l-.91-.38-.05-.48.58-.39-.2.05h-.14l-1.39-.48-.19-.29.1-.81-1.63-.62h-3.35l-2.25-.34-.05.34-.19.24-1.1.23-.2-.04-.76-.58-3.97.91-.29-.14-.71-1.87.04-.29 1.15-1-.95-3.07.28-.34 1.3.1.86-2.54.33-.2 2.78.77 2.92-.38 1.15-1.4.28-.09 1.34.34 3.11-1.58.39.14.28.82.67.24.53-.72.1-.1 1.1-.53.14-.04 1.39.1.48-.54h.38l2.15 2.06.1.24-.05.48 3.16 2.78 1.05-1.2-.14-2.4.29-.28h.52l.24.2 1.34 3.83 2.59 5.13.04.14-.38 2.45-.1.14-5.16 4.36-.15.05-3.68.33Zm-3.97-1.96 3.97 1.44 3.4-.39 5.02-4.26.34-2.26-2.54-5.08-1.3-3.69h-.04l.14 2.2-.05.2-1.34 1.49-.38.04-3.44-3.02-.1-.24.05-.48-1.87-1.77-.38.43-.2.1-1.43-.1-.96.48-.57.86-.33.1-.96-.38-.15-.15-.23-.67-2.92 1.49h-.2l-1.24-.34-1.1 1.34-.14.1-3.07.43h-.1L97.78 79l-.86 2.5-.28.19-1.1-.1.9 2.83-.1.29-1.1 1 .58 1.49 3.88-.91.24.05.76.57.82-.14.05-.43.28-.24 2.5.38 3.44.05 1.86.72.15.28-.1.82 1.1.38 2.01-.62.24.48-1.82 1.15.39.14 1.1-.19h.14l.86.29.05.48-.96.48-.28.9Z"/><path d="m78.54 61.21-.67.53v1.05l1.05.1.76-.58-.62-.24.15-.43-.67-.43" opacity=".35"/><path fill-rule="nonzero" d="m78.87 63.18-1.05-.15-.24-.24v-1.05l.1-.2.66-.52h.3l.66.43.1.29-.05.24.38.14.05.48-.77.58h-.14Zm-.76-.63.71.1.34-.24-.2-.1-.14-.33.1-.24-.34-.2-.43.34v.67h-.04Z"/><path d="m37.95 44-1 .29.28.43 1.3-.05.86.05v-.33L37.95 44" opacity=".35"/><path fill-rule="nonzero" d="m37.23 45-.24-.14-.28-.47.14-.39 1.15-.24 1.44.39.19.28-.05.3-.29.23-.81-.05-1.25.1Zm.15-.57 1-.04-.43-.1-.57.14Z"/><path d="m88.92 64.9 2.49 2.64-.14.96 3.63 2.1.53.05-.72-1.96-3.11-2.35.05-.34-1.58-1.24-1.15.14" opacity=".35"/><path fill-rule="nonzero" d="m95.43 70.9-.67-.06-3.64-2.1-.14-.3.14-.8-2.39-2.55.14-.43 1.1-.14.2.05 1.62 1.24.1.24-.05.2 2.97 2.25.1.1.71 1.96-.19.33Zm-.43-.53h.1l-.58-1.5-3.01-2.3-.1-.23.05-.2-1.39-1.05-.48.05 2.1 2.25.05.24-.14.77 3.4 1.97Z"/><path d="m115.82 70.75.86.67-1.15.86 2.44.15 1.82 1.39-.57.24 1.53 2.25 1.96.48.62-.91.48.05 2.58 2.34.96.05-1.15-2.25.15-.58-.87-.76-.57-1.3-3.4-1.39-2.49-.09-1.62-1.78-1.58.58" opacity=".35"/><path fill-rule="nonzero" d="m127.35 78.61-1-.05-.15-.05-2.49-2.25h-.24l-.52.77-.29.1-1.96-.49-.14-.1-1.58-2.24.1-.39.18-.1-1.38-1.05-2.4-.14-.14-.48.86-.62-.62-.48.1-.48 1.57-.53.29.05 1.58 1.68 2.44.1 3.4 1.38.14.14.58 1.25.81.72.1.24-.1.48 1.1 2.16-.24.38Zm-.86-.62.43.04-.96-1.82v-.19l.1-.43-.81-.77-.58-1.2-3.25-1.34-2.44-.1-.2-.09-1.53-1.63-.95.34.47.38v.43l-.57.38 1.72.1.15.05 1.77 1.39-.05.43-.29.14 1.34 1.92 1.68.38.48-.76.24-.1.47.05.15.05 2.63 2.35Z"/><path d="m127.83 75.35 1.1.67h1.72l.91-1.1-.95-.34-.82.91-.91-.24-.38-.71-.67.81" opacity=".35"/><path fill-rule="nonzero" d="M130.65 76.26h-1.72l-.14-.05-1.1-.67-.05-.38.67-.82.43.05.33.58.63.19.71-.77.3-.1.95.34.14.43-.86 1.1-.29.1Zm-1.62-.53h1.53l.57-.72-.43-.14-.72.77-.28.1-.86-.25-.15-.1-.24-.38-.24.3.82.42Z"/><path d="m16.27 26.46-.76 1.82 1.38.38 1.01.1.14-.96.15-.62-.53-.34-1.39-.38" opacity=".35"/><path fill-rule="nonzero" d="m17.85 29-1-.05-1.49-.43-.19-.34.77-1.82.33-.14 1.53.43.48.38.1.24-.29 1.54-.24.19Zm-2-.91 1.14.33.72.05.19-1.15-.34-.24-1.14-.33-.58 1.34Z"/><path d="m19.91 25.4-.53.63-.19.91.86 1-.09.29h-.48l-.1.63-2.2 1.1.48.33 1.44.1 1.38.72.96-.24-.24-.96.91.05.1-.58-.43-.38-.34-.96.29-.67-.53-.77.1-1.29-1.39.09" opacity=".35"/><path fill-rule="nonzero" d="M20.58 31.35h-.2l-1.33-.67-1.39-.1-.14-.05-.48-.33.05-.43 2.05-1.06.1-.53.29-.24h.24l-.72-.86-.05-.24.14-.9.05-.15.53-.58.14-.1 1.39-.14.29.29-.1 1.25.48.67.05.24-.24.62.24.77.38.29.1.23-.1.63-.29.24h-.52l.19.57-.2.34-.95.24Zm-2.82-1.3 1.48.15 1.3.67.57-.15-.2-.67.3-.33.7.05.06-.24-.34-.24-.1-.15-.28-.96V28l.24-.57-.43-.63-.05-.19.1-1-1 .1-.49.42-.14.72.76.91.05.24-.1.29-.28.2h-.24l-.05.42-.14.2-1.82.9.1.05Z"/><path d="m101.12 66 2.06-.48 1.82-1.43.86.67-.19.91-.19 1.24-2.01 3.02-2.92-.24-.57.29-1.44-.09.14-.91-.52-.05.86-2.11.96.09 1.05-.28.09-.63" opacity=".35"/><path fill-rule="nonzero" d="m99.93 70.27-1.44-.1-.24-.28.1-.68h-.24l-.24-.38.86-2.1.24-.15.91.05.81-.24.1-.43.2-.2 2-.48 1.72-1.39h.34l.86.68.1.23-.15.92-.24 1.34-2 3.02-.25.1-2.87-.2-.57.29Zm-1.05-.62 1.05.04.52-.24.15-.04 2.77.19 1.92-2.83.33-1.97-.57-.43-1.72 1.35-1.87.47-.1.44-.19.19-1.15.29-.76-.05-.67 1.58h.19l.24.29-.14.72Z"/><path d="m96.24 71.13-.48.29.24.43.29-.24.34-.14-.39-.34" opacity=".35"/><path fill-rule="nonzero" d="m96.2 72.04-.44-.05-.23-.47.09-.34.48-.29.33.05.39.34-.1.43-.29.14z"/><path d="m104.81 70.8.29-1.35 1.15-1.39 3.25-.91 1.01.1-.39.57-1.53.1-.14.19.43.48-.67.96-1.72.38-.53.58-1.15.29" opacity=".35"/><path fill-rule="nonzero" d="m104.86 71.04-.34-.34.34-1.44 1.1-1.34.14-.1 3.35-.9 1 .09.2.43-.38.58-.2.1-1.34.09.24.29v.33l-.71.91-.15.1-1.62.38-.48.53-.15.1-1 .19Zm.48-1.49-.2.86.63-.14.48-.53.14-.1 1.63-.38.52-.67-.28-.33v-.34l.14-.24-2.01.58-1.05 1.29Zm4.2-2.1-.66.18 1.15-.04.04-.1-.52-.05Z"/><path d="M97.82 71.71h2.01l1.96.43.58.09.29.34-1.01-.05-1.15-.19-1.91.14-.91.1-.34-.58.48-.28" opacity=".35"/><path fill-rule="nonzero" d="m102.66 72.81-1-.05-1.2-.19-1.87.14-.91.1-.24-.14-.29-.53.1-.34.48-.28.14-.05h2.01l2.01.43.53.05.19.1.29.33-.24.43Zm-4.93-.72.1.2.71-.1 1.72-.15-.43-.1h-1.91l-.2.15Z"/><path d="m108.5 63.7.57-.57 2.01-.19.53-.24 1.48.09-1.82 2.01-.33-.95-2.44-.15" opacity=".35"/><path fill-rule="nonzero" d="m111.46 65-.43-.1-.29-.81-2.24-.15-.15-.43.58-.57.14-.1 1.96-.2.48-.23.14-.05 1.49.1.19.43-1.87 2.1Zm-2.34-1.54 1.82.15.24.19.19.53 1.15-1.3-.87-.05-.57.24-1.91.15-.05.1Z"/><path d="m108.59 57.76-.24 1.25-1.19.86-.15.57 2.16-1.05.81-1.54-1.39-.09" opacity=".35"/><path fill-rule="nonzero" d="m107.16 60.68-.39-.28.1-.63.1-.14 1.1-.82.19-1.15.28-.24 1.4.1.23.38-.81 1.54-.1.1-2.1 1.14Zm1.62-2.63-.19 1-.1.2-.95.67 1.43-.72.58-1.06-.77-.1Z"/><path d="m38.96 6.81.33 1.34.86-.1.29-.33 1.01-.05.09-.67-1.05-.39-1.53.2" opacity=".35"/><path fill-rule="nonzero" d="m39.34 8.39-.29-.2-.33-1.34.24-.33 1.48-.2h.14l1.06.4.19.28-.1.67-.24.24-.86.05-.24.24-.14.1-.91.09Zm-.05-1.34.2.81.52-.05.24-.24.19-.1.77-.04.04-.24-.81-.29-1.15.15Z"/><path d="m35.13 6.47-.58.24-1-.29-.19 1.15 1 1.01 2.11-.24.05.38-1.15.48.67.1-.72.72.81 1.48 2.16-3.26-1.53-1.15-1.49.48.67-.96-.81-.14" opacity=".35"/><path fill-rule="nonzero" d="M36.32 11.65h-.43l-.81-1.49.05-.33.33-.34h-.14l-.05-.53.67-.28-1.53.19-.2-.1-1.04-1-.1-.24.2-1.15.33-.2.95.24.48-.19h.15l.81.15.2.43-.25.33.77-.24.24.05 1.48 1.15.05.34-2.16 3.2Zm-.67-1.58.48.9L37.9 8.3l-1.2-.9-1.33.42-.29-.38.43-.62-.33-.05-.48.19h-.15l-.76-.2-.15.78.87.81 1.96-.24.29.24.04.38-.14.24-.48.2.1.28-.63.63Z"/><path d="m38.72 9.44-.19.34.24.91.86-.43-.63-.39.2-.28-.48-.15" opacity=".35"/><path fill-rule="nonzero" d="m38.86 10.93-.38-.2-.2-.86v-.19l.15-.38.34-.14.47.14.15.38-.05.05.38.24-.05.48-.8.48Zm.05-.82.05.2.14-.1-.2-.1Z"/><path d="m56.9 15.72-.57.82-.62.33-.24.63.52.52 1.44.1.86.67 1.29.1-.09-.39-.96-.48v-.38l-.91-.43.34-1.15-1.06-.34" opacity=".35"/><path fill-rule="nonzero" d="m59.58 19.13-1.29-.1-.14-.05-.77-.57-1.39-.1-.14-.1-.53-.52-.04-.29.24-.67.14-.15.57-.28.53-.77.29-.1 1.05.34.2.34-.3.95.72.3.15.23v.24l.81.38.14.15.1.38-.34.39Zm-1.2-.63.68.05-.58-.29-.14-.24v-.24l-.77-.33-.14-.34.24-.96-.62-.19-.58.72-.52.29-.15.38.34.34 1.34.1.14.04.77.67Z"/><path d="m58.96 15.19 2.92-2.87 1.01.05 1.53-.53-1.2-1.34-.57.28-.91-.38-1.2 1.2-1-.05-.77 1.49-1.24.19-.34.62.86.72-.62.53 1.53.09" opacity=".35"/><path fill-rule="nonzero" d="m58.96 15.48-1.48-.1-.15-.47.39-.34-.62-.53-.05-.33.33-.62.2-.15 1.14-.19.67-1.39.24-.14.86.04 1.15-1.1.29-.05.76.34.44-.24.33.05 1.24 1.34-.1.43-1.67.53-.86-.05-2.82 2.83-.29.14Zm-.86-.57.77.04 2.82-2.82.2-.1.95.05 1.15-.38-.82-.92-.38.2h-.24l-.72-.34-1.1 1.1-.19.1-.81-.05-.67 1.34-.2.15-1.14.19-.2.29.72.57v.39l-.14.19Z"/><path d="m78.39 5.9.43.86-.09.43.72.96 1-.53h1.2V7l-1.58-.48-1.01-.72-.67.1" opacity=".35"/><path fill-rule="nonzero" d="m79.59 8.39-.34-.05-.71-.96-.05-.24.1-.33-.44-.77.2-.38.66-.1.2.05.95.72 1.53.43.2.24v.62l-.3.29h-1.14l-.86.48ZM79 7.14l.53.67.96-.48h.96V7.2l-1.49-.43-.9-.67-.2.05.29.52v.2l-.15.28Z"/><path d="m76.09 4.84-1.48.19.72 1.3 1.91.43.05-.29-.38-.38-.82-1.25" opacity=".35"/><path fill-rule="nonzero" d="m77.2 7-1.92-.43-.19-.15-.72-1.3.2-.37 1.48-.24.24.1.81 1.24.38.33.1.24-.05.3-.33.28Zm-1.68-.91 1.34.29-.14-.15L76 5.08l-.91.14.43.87Z"/><path d="m74.28 3.74-.05.38-1.01.24-1.38-.77.52-.57 1.63-.19.29.91" opacity=".35"/><path fill-rule="nonzero" d="m73.27 4.6-.19-.05-1.39-.72-.05-.43.53-.62.14-.1 1.58-.19.3.2.33 1.05-.05.33-.2.24-1 .3Zm-1-1.05 1 .52.77-.19v-.1l-.24-.66-1.3.14-.23.29Z"/><path d="m101.32 8.29.19 1.92 1.53-.19h.48l1.19-1.1 1.06.04-.39-1-2.96-.19-1.1.52" opacity=".35"/><path fill-rule="nonzero" d="m101.56 10.5-.3-.24-.23-1.92.14-.29 1.25-.57 2.96.19.24.2.34.95-.24.34-.91-.05-1.1 1.05-.2.1h-.47l-1.48.24Zm.04-2.02.2 1.44 1.24-.19h.43l1.1-1.05.2-.1.61.05-.14-.43-2.73-.2-.9.48Z"/><path d="m117.11 49.61.29-.57 1.96-.77.09-.39 2.64-.28.33-1.97 1.25.24.09 1.01-.72 1.24-.19 1.35-.81-.1-.77.48-.95-.29-.72.96-1.34.14v-1l-1.15-.05" opacity=".35"/><path fill-rule="nonzero" d="m118.3 50.9-.28-.24v-.76l-.91-.05-.24-.38.29-.53.14-.1 1.87-.72.1-.24.23-.19 2.4-.28.33-1.78.29-.19 1.24.24.2.24.09 1-.05.15-.67 1.2-.19 1.3-.29.23-.72-.1-.67.44-.23.05-.82-.24-.57.81-.2.1-1.33.04Zm-.76-1.58.77.05.24.29v.72l.9-.1.63-.86.28-.1.87.24.62-.43.19-.05.57.1.2-1.15.66-1.2-.1-.72-.76-.14-.28 1.68-.24.19-2.44.28-.05.2-.15.19-1.86.72-.05.1Z"/><path d="m116.63 50.43-.76.19-.29.57.29.05.19-.14.67.14.24-.38-.34-.43" opacity=".35"/><path fill-rule="nonzero" d="M115.87 51.48h-.3l-.23-.38.29-.58.14-.14.72-.2.28.1.34.43V51l-.24.38-.29.15-.57-.1-.1.05h-.04Zm.23-.62.48.1.05-.06-.1-.14-.43.1Z"/><path d="m123.09 41.61.34 1.24-1.3 1.49 1.01.09.57-.28.91.38.67-.96.96.1.1-.63-1.87-.43.1-.62-1.49-.38" opacity=".35"/><path fill-rule="nonzero" d="m124.53 44.77-.82-.34-.43.24-.14.05-1-.1-.2-.43 1.2-1.39-.29-1.1.34-.33 1.43.38.2.29-.05.33 1.62.39.2.28-.1.63-.29.24-.81-.05-.58.81-.28.1Zm-.72-.91.72.33.57-.76.24-.1.72.05v-.14l-1.68-.39-.19-.29.05-.33-.77-.2.2.82-.05.24-.96 1.1.43.05.48-.24.24-.14Z"/><path d="m121.32 34.18 1.34 2.54.14 1.82-.76 1.15.48 1.29.95-.14 1.25.38-1.1-1.92.29-.38.86-.19.04-.86-.76-.39-.91-1.91-1.01-1.39h-.81" opacity=".35"/><path fill-rule="nonzero" d="m124.67 41.46-1.2-.33-.9.14-.3-.2-.47-1.33.05-.24.72-1.06-.15-1.63-1.29-2.49.24-.38.81-.05.24.1 1 1.38.92 1.87.67.34.14.24-.05.86-.19.24-.77.15-.19.23 1 1.78-.28.38Zm-1.2-.86h.1l.62.2-.76-1.35v-.29l.28-.38.15-.1.67-.14v-.48l-.62-.29-.15-.14-.9-1.92-.92-1.25h-.24l1.15 2.26.15 1.77-.05.2-.72 1.05.38 1 .86-.14Z"/><path d="m220.87 6.33 1.53 1.39 2.63.19 1.87 2.01-.43 1.63 1.81.67-.71.72.28.62.96-.14.43 1.2-1.39 1.82 1.34 3.31.67.24 1.44 1.05 1.15.43.62-1.05-.48-1.2 1.34-1.77-.62-1.49 2.78-.81 2.53-2.64 1.68-.86-.29-.63-1.91.29-.05-1.53 2.25.57-.29-.62-2.82-.81-.05-1.3.96-.14.28-.63-3.68-3.02.14-.95-1.15-.15-.67.72.58-2.35-.62-.14-.91 1.44-1.11-.2-.23-.62-.87.43-1.1-.14 2.06-1.2-.57-.29-1.92.29-.62 1.06-2.3-.58-2.15.96.86.81-1.48.24-.29.39.34.91-2.45.33-.33.39 1.77.72-.81.43" opacity=".35"/><path fill-rule="nonzero" d="m232.4 21.76-1.24-.48-1.44-1.05-.57-.24-.15-.15-1.34-3.3.05-.24 1.3-1.68-.3-.86-.76.1-.29-.15-.28-.62.04-.3.43-.42-1.43-.53-.2-.34.39-1.53-1.68-1.77-2.53-.2-.15-.04-1.48-1.4.05-.42.29-.15-1.25-.48-.1-.43.34-.43.2-.1 2.1-.28-.2-.58.05-.24.3-.38.18-.1.96-.14-.48-.43.1-.43 2.15-.96h.2l2.1.52.52-.9.2-.15 1.86-.29h.15l.57.24.05.48-1.39.82.29.04.76-.43.39.15.19.48.76.1.82-1.3.28-.1.63.2.19.33-.34 1.34.24-.1 1.1.15.24.29-.1.86 3.6 2.87.1.34-.3.62-.19.15-.71.1v.86l2.68.76.14.15.29.57-.3.39-1.9-.48.04.9 1.63-.23.29.14.24.62-.15.34-1.62.81-2.54 2.64-.1.05-2.49.72.48 1.2-.04.24-1.25 1.63.43 1.1v.24l-.62 1.05-.48.24Zm-1-.96.95.34.43-.77-.43-1.1.05-.24 1.25-1.63-.53-1.34.19-.34 2.68-.77 2.58-2.63 1.44-.77-.1-.24-1.72.24-.29-.24-.04-1.53.33-.29 1.15.29-2.2-.62-.2-.24-.04-1.3.24-.29.81-.14.15-.29-3.55-2.87-.1-.24.1-.72-.71-.1-.58.62-.43-.23.53-2.11-.2-.05-.8 1.3-.25.14-1.1-.15-.19-.14-.14-.38-.58.28-.14.05-1.1-.14-.1-.48 1.58-.96h-.05l-1.67.24-.57.96-.3.14-2.34-.62-1.67.76.57.58-.14.43-1.39.2-.14.18.28.72-.19.34-2.3.33-.04.05 1.43.58.05.48-.48.24 1.15 1.05 2.59.24.19.1 1.82 1.96.04.24-.33 1.44 1.63.58.1.43-.63.62.14.29.77-.1.29.2.43 1.2-.05.23-1.3 1.68 1.25 3.07.53.19 1.39 1.05Z"/><path d="m240.58 17.74-.23.38.9.38-.33.91.77.43 3.73-.43.33-.62.96-.1-.1-.62-1.34-.29.2-.86-2.25.58-1.25-.77-.67.43.67.67-1.24-.24-.15.15" opacity=".35"/><path fill-rule="nonzero" d="m241.73 20.08-.14-.04-.81-.44-.15-.33.24-.67-.67-.24-.14-.39.29-.43.14-.14.24-.1.38.05-.05-.05.05-.43.67-.43h.29l1.2.72 2.15-.58.33.34-.14.62 1.1.24.2.24.09.63-.24.28-.82.1-.28.48-.2.14-3.73.43Zm-.48-.81.53.29 3.5-.39.28-.48.2-.14.66-.1v-.19l-1.15-.24-.23-.28.1-.48-1.83.48h-.19l-1.15-.68-.24.15.43.43-.24.43-1.1-.2-.1.15.63.24.14.34-.24.67Z"/><path d="m156.21 19.32 5.41.76 3.06-1.1 3.11.15-3.2.81 3.11.19 1.81 1.92.96 2.4 1.58-1.2.72 1.82-1.1 1.15.09 2.88 2.68 2.73-.43 1.67-.81-.81-2.73 4.55 1.2 4.32-.62 1.05 1.19 1.73.96-.15 1.72 2.93-.09.96 4.59 4.07.05-1.25-1.39-.81-1.05-2.68-1.29-.72.09-1.01 1.34.77.48 1.2 3.59 3.88 2.39.91 1.01 2.39 3.64 1.68.95-.19 4.93.86 2.44-.38 2.16 1.58 3.78.67 1.96-.28.76 1.82.96-.15 1.15 1.73.96-.15 4.02 1.25.96-.14.76-.72.96-.15.48 1.15 1-.14 1.29 2.06-2.39 2.93-.43 1.34 1.53.09-1.24 2.11.38.87 6.13 3.83 1.53.1 4.02 2.58.52 3.7-1.19.86 1.19 8.15.96-1.44.48 2.49-.77.77 3.83 4.17.91-.1.72-2.06 1.2-.81-.34-.87-1.24-.48 1.48-1.53-.38-2.16 3.78-.62 1.24-.81-1.19-1.73 2.53-.05 5.12-3.74-.38-1.19 3.11-2.4.34.91 2.49-1.39 2.15-3.5-.48-1.2 2.92-1.44.43-2.78-4.31-2.06-2.49.1-3.11-1.44-2.34.38.33.87-2.44-.87-1.19.82-.48-1.2 1.63-.91.14-.96-2.92-2.4-4.02.29-1.53-1.39-3.5-1-2.29.62-1.77-.67-3.35.52-.05 1.11-1.68-.15.96-1.48-3.83 1.91-.29.63-.9.14-2.21-1.53-3.3.48-2.92-.82.15-2.2-1.2-1.78-2.73.72-2.06.05.24-1.96 1.25-2.07-1.1-.19-2.83.77-.19 1.96-1.91.29-5.55-1.05-.39-1.25-1.05-1.1.91-3.02 3.35-1.73 2.82-.48 2.3.63.96-.15-.86-.86 4.49-.33 1.78.62.95 1.15 2.11 1.58.67-1.05-.62-1.49-1.73-1.68.67-2.35 2.97-1.39-1.53-2.63 1.77.67v-1.3l1.2-1.48 1.48-.86-.86-.87 4.11-3.83-1.05.19-.57-1.49-3.16.82.72-2.06 5.69-2.16-.48-1.2-3.35.53.48-1.39-1.91.34-3.69-2.93-.48 1.34-1 .15-1.44-1.06-6.17-.28 1.05 2.68 1.92.96-.48 1.39 2.25 3.16-2.35.34-3.16-2.64-3.59-1.39-1.34.53-1.96-3.55-.05-1.58 1.77.72.77-.77-1.48-1.1 2.05.05 2.3-1.97-.48-1.2-2.1 1.3-3.45-2.4.96 2.45-1.34.52-.24-.62-4.02-.05-.14 1.06-3.55-1.39.53-1.01-6.84-1.82-1.44.24-1.63-2.97-1.34-.72.15-1.01-4.6-1.2h-2.06l.1 1.58-.77.44-.81-.82-1.96.34.48 1.15.81.86-.76.43-3.79-.38-1.96 1.29 1.25.77-.29.33 1 1.49-.33.34-4.93.43" opacity=".35"/><path fill-rule="nonzero" d="m232.35 98.17-.24-.1-3.83-4.22v-.38l.67-.67-.33-1.73-.62.91-.48-.1-1.2-8.14.1-.24 1.1-.77-.48-3.45-3.88-2.44-1.62-.15-6.13-3.83-.1-.1-.38-.86v-.24l1-1.77-1.1-.1-.23-.34.48-1.39 2.3-2.78-1.1-1.72-.82.1-.29-.15-.38-.96-.72.1-.67.67-.14.1-.96.14h-.1l-3.97-1.2-.86.14-.24-.1-1.1-1.57-.81.1-.29-.15-.67-1.63-1.87.29-3.87-.72-2.1-1.54-2.4.39-4.93-.87-.91.15h-.14l-3.64-1.68-.14-.14-.96-2.26-2.4-.95-3.54-3.84.77 2.01 1.34.77.14.24-.05 1.25-.43.19-4.59-4.08-.1-.24.1-.9-1.58-2.7-.67.06-.24-.1-1.2-1.72v-.3l.58-.9-1.2-4.22.05-.2 2.73-4.55.43-.04.48.48.28-1.06-2.53-2.64-.1-.19-.1-2.87.05-.2.96-1-.48-1.3-1.34 1.01-.38-.1-.9-2.34-1.73-1.82-3.02-.15-.04-.53 1.48-.38-1.3-.05-3.15 1.1-5.41-.76v-.53l4.83-.43.15-.14-.91-1.3v-.33l.1-.15-1.01-.57v-.43l2-1.3.2-.05 3.69.34.38-.2-.62-.66-.48-1.2.19-.34 1.96-.33.24.04.72.68.43-.24-.1-1.44.24-.29h2.1l4.6 1.2.2.29-.1.81 1.15.62.1.1 1.52 2.83 1.25-.2h.1l6.84 1.83.14.38-.43.77 2.97 1.15.1-.72.28-.24 4.02.05.24.19.14.38.87-.33-.87-2.16.39-.33 3.35 2.15 1.96-1.2.38.15.48 1.2-.1.28-2.24 1.97-.2.05h-1.24l.81.62.05.38-.76.72-.3.05-1.38-.53.05 1.1 1.77 3.27 1.1-.44h.2l3.68 1.44 3.06 2.59 1.82-.29-2.01-2.83-.05-.24.38-1.15-1.67-.86-.15-.14-1.1-2.69.24-.38 6.18.29.14.05 1.34.95.77-.1.38-1.19.43-.14 3.59 2.82 1.82-.28.28.33-.33.96 2.92-.43.29.14.47 1.2-.14.34-5.6 2.15-.52 1.44 2.68-.72.33.15.53 1.3.81-.15.24.43-3.92 3.64.67.62-.05.44-1.44.81-1.1 1.44v1.15l-.33.24-1.1-.43 1.2 2.01-.1.38-2.88 1.35-.57 2.1 1.63 1.64.62 1.48v.24l-.67 1.06-.38.1-2.1-1.6-.97-1.1-1.62-.62-3.88.3.43.42-.14.43-1 .15h-.1l-2.2-.58-2.73.43-3.26 1.68-.81 2.73 1 1.1.34 1.1 5.31 1.02 1.68-.24.19-1.73.19-.24 2.92-.81 1.1.19.2.38-1.2 2.06-.25 1.58 1.73-.04 2.68-.72.29.1 1.2 1.77.04.19-.14 2.01 2.68.77 3.25-.53.2.05 2.1 1.48.67-.1.24-.47.14-.14 3.83-1.92.33.38-.71 1.1.95.1.05-.86.24-.24 3.35-.48h.14l1.73.62 2.2-.57h.14l3.6 1.05 1.43 1.3 3.92-.3.2.06 2.91 2.4.1.23-.1 1.25-.14.19-1.44.77.29.67.91-.63.24-.04 1.91.67-.14-.34.2-.33 2.34-.39h.14l3.01 1.4 2.45-.1.14.05 4.26 2.06.14.28-.43 2.78-.14.2-2.73 1.34.38.96v.24l-2.1 3.54-.1.1-2.54 1.34-.38-.14-.19-.58-2.68 2.06.34 1.01-.1.29-5.12 3.69-.14.05-2.06.04.9 1.35-.09.38-1.3.86-3.53.58.33 1.87-.05.24-1.2 1.24.87.34.14.14.34.91-.1.34-1.15.77-.67 1.96-.19.2-.9.14Zm-3.44-4.46 3.54 3.93.62-.1.67-1.87.1-.14 1-.67-.24-.58-1.15-.43-.1-.43 1.4-1.44-.39-2.01.24-.29 3.74-.62.95-.62-1.05-1.54.2-.43 2.48-.05 4.88-3.54-.33-1.01.1-.29 3.1-2.4.43.15.24.62 2.2-1.2 2.01-3.35-.43-1.1.15-.34 2.82-1.34.38-2.45-4.02-1.96-2.44.1-.1-.05-3-1.4-1.97.34.2.58-.34.33-2.3-.81-1.05.76-.39-.1-.48-1.19.15-.34 1.53-.81.1-.72-2.73-2.25-3.93.29-.19-.05-1.48-1.34-3.35-.96-2.2.57h-.15l-1.72-.62-3.06.48-.05.9-.29.25-1.63-.15-.19-.38.43-.67-2.87 1.44-.24.53-.19.14-.9.14-.2-.04-2.1-1.5-3.21.49h-.1l-2.92-.86-.19-.3.15-2.1-1.06-1.53-2.53.67-2.1.04-.3-.28.3-2.06 1-1.78-.67-.1-2.59.73-.19 1.77-.24.24-1.91.29h-.1l-5.55-1.06-.2-.19-.38-1.2-1-1.05-.05-.24.86-2.97.15-.15 3.44-1.77 2.83-.43h.1l2.2.57.42-.05-.47-.48.14-.43 4.5-.38h.1l1.76.67.1.1.96 1.15 1.82 1.34.43-.67-.58-1.3-1.67-1.63-.05-.24.67-2.34.14-.2 2.73-1.29-1.43-2.4.33-.38 1.44.53v-1.1l.04-.15 1.25-1.58 1.2-.67-.58-.58v-.38l3.45-3.26-.2.05-.28-.15-.53-1.29-2.92.77-.33-.34.71-2.01.15-.15 5.45-2.1-.28-.72-3.11.48-.3-.34.34-.96-1.48.24-.2-.05-3.39-2.68-.33.96-.24.19-1.06.14-.19-.04-1.34-.96-5.79-.39.91 2.2 1.82.92.14.33-.43 1.25 2.16 3.07-.2.43-2.34.38-.2-.04-3.1-2.64-3.5-1.34-1.24.48-.34-.15-1.96-3.64-.1-1.58.39-.24 1.63.62.43-.38-1.25-.96.15-.48 1.96.05 2.06-1.78-.3-.76-1.86 1.15H197l-2.73-1.87.62 1.63-.14.33-1.34.53-.34-.14-.19-.48-3.64-.05-.1.81-.33.2-3.54-1.4-.14-.38.38-.72-6.46-1.72-1.39.19-.29-.14-1.62-2.93-1.25-.67-.14-.29.1-.76-4.36-1.15h-1.63l.1 1.34-.15.24-.76.38-.29-.05-.76-.72-1.49.24.34.82.76.81-.05.44-.76.38-.14.05-3.69-.34-1.58 1 .91.54.05.38-.2.19.92 1.3-.05.33-.34.38-.14.1-2.58.24 3.06.43 3.1-1.1 3.12.14.05.53-1.53.38 1.38.1.2.1 1.86 2 .82 2.07 1.34-1 .38.09.67 1.77-.05.29-1 1.05.1 2.69 2.58 2.63.04.24-.43 1.68-.43.14-.57-.57-2.5 4.17 1.2 4.22-.04.19-.58.86 1 1.44.82-.14.29.14 1.67 2.92.05.15-.1.86 4.07 3.6v-.53l-1.24-.72-.1-.14-1-2.6-1.2-.71-.14-.24.1-.96.38-.2 1.29.78.1.14.43 1.15 3.49 3.79 2.35.9.14.15.96 2.25 3.49 1.63.96-.14 4.93.86 2.34-.38.2.05 2.15 1.53 3.63.67 1.92-.33.28.14.67 1.63.77-.1.24.1 1.1 1.58.77-.14h.14l4.02 1.2.81-.1.67-.67.15-.1 1-.14.29.14.38.96.77-.1.24.1 1.29 2.06v.29l-2.4 2.88-.33.96 1.2.1.19.37-1.15 2.02.29.67 5.98 3.74 1.63.14 4.02 2.54.14.2.48 3.73-.1.24-1.05.77 1.1 7.28.62-.86.48.1.48 2.49-.1.24-.47.96Zm-52.89-47.17 1.15.67-.24-.57-.86-.53-.05.43Z"/><path d="m160.47 11.89.72.48-.53.28-.81-.28.48-.15.14-.33" opacity=".35"/><path fill-rule="nonzero" d="m160.57 12.9-.82-.3v-.47l.34-.1.1-.24.38-.14.71.48v.43l-.52.29-.2.04Zm0-.58.1.05.04-.05-.1-.05-.04.05Z"/><path d="m208.9 51.96 2.4-.34 4.25.34.1.24 2.87.86-2.87.43-1.77-.67-2.82-.53-1.39.24-.77-.57" opacity=".35"/><path fill-rule="nonzero" d="M215.7 53.73h-.15l-1.77-.67-2.72-.48-1.34.2-.2-.05-.71-.53.1-.48 2.39-.38 4.35.33.24.2.05.14 2.73.76-.05.53-2.92.43Zm-4.7-1.68h.1l2.83.53 1.77.67 1.63-.24-1.73-.48-.19-.19-.05-.1-4.11-.28-1.68.24.15.1 1.29-.25Z"/><path d="m208.76 52.68-.34-.05-.47.34.71.09.34-.24-.24-.14" opacity=".35"/><path fill-rule="nonzero" d="m208.62 53.3-.72-.05-.15-.48.53-.38h.19l.38.05.29.14v.43l-.33.24z"/><path d="M216.37 54.12h-.96l-.62-.15-.43.15 1 .33 1.44-.29-.43-.04" opacity=".35"/><path fill-rule="nonzero" d="M215.46 54.74h-.14l-1.06-.38v-.48l.48-.2h.14l.63.15 1.29.05.05.52z"/><path d="m219.72 52.2.72.57-1.58 1.2h2.01l1.86-.62 1.53.09.91-.47-.14-.29-2.92-.86-2.39.38" opacity=".35"/><path fill-rule="nonzero" d="M220.87 54.21h-2.01l-.15-.48 1.3-1-.44-.34.1-.48 2.4-.38h.09l2.97.81.19.15.1.28-.15.34-.86.48-.15.05-1.53-.1-1.86.67Zm-1.25-.53h1.2l1.91-.62 1.49.1.57-.29-2.68-.77-1.67.29.24.14v.44l-1.06.71Z"/><path d="m226.66 53.06.76-.33 1.1-.15.24.1-.67.38-1.19.19-.24-.19" opacity=".35"/><path fill-rule="nonzero" d="m226.9 53.49-.15-.05-.24-.14.05-.48.82-.33 1.1-.2.14.05.29.15v.43l-.77.43z"/><path d="m219.29 33.65.19-.77 1.67-1.24.15-.29.72-.15-.2.68-.76.91-1.25.95-.52.63-.19-.39.19-.33" opacity=".35"/><path fill-rule="nonzero" d="m219.48 34.56-.43-.05-.2-.38v-.24l.2-.34.19-.72.1-.14 1.62-1.2.1-.24.19-.14.72-.15.28.34-.28.77-.77.9-1.29 1.01-.43.58Zm.24-1.53-.2.62.1-.1 1.3-1 .66-.82.05-.24-.19.05-.1.2-.09.09-1.53 1.2Z"/><path d="m217.18 29.14-.33.24.43.72h.67l.52-.24-.09-.38-.53.05-.19-.39h-.48" opacity=".35"/><path fill-rule="nonzero" d="m217.28 30.34-.24-.14-.43-.72.1-.38.33-.24.14-.05.48-.05.24.14.1.24.33-.04.29.19.1.38-.15.29-.62.29-.67.1Zm-.1-.86.24.33h.48l.1-.04h-.1l-.24-.15-.1-.24h-.23l-.15.1Z"/><path d="m220.58 27.85.14 1.92.29.52.91-.33.05-.24.43.19.62-.05-.05-.48 1.06.34.81-.19-.81-.63-.87-.86h-1.19l-.34.38-.28-.04-.15-.72-.24.05-.38.14" opacity=".35"/><path fill-rule="nonzero" d="m221.1 30.53-.33-.14-.29-.67-.14-1.87.14-.24.39-.2.28-.04.34.2.1.52.23-.24.2-.1h1.24l.2.1.8.81.82.63-.1.48-.86.19h-.14l-.67-.2v.1l-.24.29-.62.1-.15-.05-.19-.1-.14.15-.86.28Zm-.14-.86.15.29.57-.2.05-.14.38-.14.38.19.3-.05v-.24l.33-.28.95.28.2-.05-.39-.28-.76-.77h-1.06l-.24.29-.24.1-.28-.05-.24-.2-.1-.48-.1.05.1 1.68Z"/><path d="m199.23 21.09-.57.24v1.58l.81.19.39-.76h1.24l.48-.48-1.29-.15-.58-.62h-.48" opacity=".35"/><path fill-rule="nonzero" d="m199.43 23.34-.82-.14-.19-.29.05-1.58.2-.24.66-.24h.48l.2.1.52.52 1.15.1.14.43-.48.48-.2.1h-1.1l-.33.62-.28.14Zm-.53-.62.43.1.34-.63.23-.14h1.01l-.57-.05-.15-.1-.52-.52h-.3l-.37.14-.1 1.2Z"/><path d="m199.43 15.1 2.96 1.15 2.87-.43 2.3.62-1.24.82 1.67 1.63-.81.47-.72 2.02 2.25-.67 2.54-.1.38.96 1.44-.24 1.34.72 1.38-.24.1-2.21-1.2-.47-3.3-.77-1.48.24-.34-.91 3.59.09 1.29.77.96-1.39-1.91-1.05-1.39.19-1.68-.34-.14-1.53-1.91.29-1.01-1.16-3.64-.38.15.58-.91.19-1.1-1.44-1.06-.14.72 1.77L200 12.8l-2.06 1.29 2.2.29-.71.72" opacity=".35"/><path fill-rule="nonzero" d="m214.45 22.34-.19-.05-1.24-.67-1.3.19-.28-.14-.34-.77-2.34.05-2.2.67-.34-.34.67-2.01.15-.14.52-.3-1.39-1.38.05-.39.72-.48-1.68-.43-2.77.43h-.14l-2.97-1.15-.1-.43.34-.38-1.63-.24-.1-.48 2.06-1.3.34.05.72.63-.34-.82.29-.33 1.05.19.14.1 1 1.29.49-.1-.1-.28.29-.34 3.68.38.2.1.9 1.05 1.78-.28.28.24.15 1.39 1.38.28 1.4-.19.14.05 1.91 1.05.1.39-.96 1.39-.34.1-1.24-.73-3.11-.04.1.33 1.29-.19h.1l3.3.77 1.24.48.19.24-.1 2.25-.23.24-1.54.05Zm-1.43-1.25.14.05 1.25.67 1.1-.2.1-1.81-1.01-.39-3.2-.76-1.44.19-.3-.2-.33-.86.24-.33 3.74.1 1.1.62.67-.96-1.58-.86-1.34.19h-.1l-1.63-.34-.19-.24-.14-1.3-1.63.25-.29-.05-.95-1.06-3.16-.28.05.19-.2.33-.9.15-.24-.1-1.06-1.34-.48-.1.53 1.4-.43.28-1.39-1.2-1.24.77 1.43.2.15.42-.43.43 2.53 1.01 2.78-.43h.1l2.3.62.09.48-.96.63 1.44 1.39-.05.43-.72.43-.48 1.44 1.82-.53 2.54-.05.24.15.28.71 1.25-.14Z"/><path d="m207.51 8.72-.23 2.02 2.29.57 1.44 1.06.96-.15.33-.91-1.48-1.05-1.77-.24-.43-1.1-1.11-.2" opacity=".35"/><path fill-rule="nonzero" d="m211 12.6-.18-.04-1.4-1-2.24-.58-.2-.3.25-1.96.28-.24 1.15.15.2.14.38 1 1.72.3 1.44 1.05.1.29-.34.9-.24.2-.91.1Zm-3.44-2.1 2.16.57 1.34.96.71-.1.2-.57-1.25-.91-1.72-.24-.2-.2-.38-1-.67-.1-.19 1.59Z"/><path d="m208.14 5.13 1.77.67 1.34-.53.19-.67.81.53-.52 1.34.24.62.86-.43.09.29-.24.67 1.15.43-1.15.87.39.91 1.67-.91 1.2.43.62-1.06-1.2-.43.34-1.68-.19-.62-1.25.86-.57-1.53.57-1.06-.48-1.19-1.05-.15-3.49 1.54-1.1 1.1" opacity=".35"/><path fill-rule="nonzero" d="m213.16 10.02-.38-.15-.34-.9.1-.3.77-.57-.72-.29-.15-.33.15-.48-.53.29-.38-.15-.24-.62v-.2l.43-1.14-.29-.24-.1.33-.14.2-1.29.52h-.2l-1.8-.67-.1-.43 1.2-1.2 3.53-1.53h.15l1 .14.2.14.52 1.2v.24l-.53.96.43 1.1 1-.67.4.15.18.72-.24 1.43.96.39.14.38-.62 1.05-.33.1-1.15-.38-1.63.9Zm-.14-1 .19.42 1.39-.76h.19l1 .33.34-.57-.91-.34-.14-.29.28-1.63-.04-.19-.96.67-.38-.14-.58-1.54v-.23l.53-.96-.43-.96-.82-.1-3.4 1.49-.76.81 1.34.53 1.1-.43.2-.58.42-.14.77.57.1.3-.48 1.24.1.24.57-.29.38.14.1.3v.18l-.15.44.91.38.05.48-.91.62Z"/><path d="m187.61 16.35 2.44.95 1.77-.67.71.53 1.01-.1-.14-.33.71-.77-2.39-2.16-.81.44-2.2-.29-.96 1.44 1.53.04-1.67.92" opacity=".35"/><path fill-rule="nonzero" d="M190.14 17.54h-.19l-2.44-.96-.05-.47.82-.44-.58-.04-.2-.44 1.01-1.43.24-.1 2.06.29.77-.39.28.05 2.4 2.2v.4l-.58.66.05.15-.19.33-1 .15-.2-.05-.57-.48-1.63.57Zm-1.91-1.24 1.82.72 1.67-.63.24.05.62.48.58-.1.04-.24.53-.57-2.06-1.87-.67.34-.14.04-2.01-.28-.62.9 1.1.05.1.48-1.2.63Z"/><path d="m186.6 13.42 1.68-.09-1.25-.96h-2.39l-.67 2.58 1.43.2.1-.63.57-.38.05-.72h.48" opacity=".35"/><path fill-rule="nonzero" d="m185.36 15.43-1.4-.19-.23-.33.62-2.6.24-.18h2.44l.14.04 1.2.96-.14.48-1.92.1v.43l-.1.2-.47.33-.1.52-.28.24Zm-1.06-.71.86.1.1-.4.1-.14.47-.33v-.58l.3-.24h.47l.96-.04-.58-.48h-2.15l-.53 2.1Z"/><path d="m203.59 12.22-.53.34.82.14.33-.57-.62.09" opacity=".35"/><path fill-rule="nonzero" d="m203.83 12.94-.81-.14-.1-.48.62-.34.62-.14.29.38-.33.63z"/><path d="M197.13 11.17v.53l1.15.57.76-.43-.71-.29-.2-.48-1 .1" opacity=".35"/><path fill-rule="nonzero" d="m198.18 12.51-1.2-.57-.14-.24v-.53l.24-.24 1-.1.3.2.14.38.62.24.05.48-.77.43-.24-.05Zm-.81-1 .9.43.15-.1-.19-.05-.14-.14-.15-.34-.57.05v.14Z"/><path d="m196.75 12.51.14.34-.14.86-1.49-.48-.43-1.44.72-.09 1.2.81" opacity=".35"/><path fill-rule="nonzero" d="m196.65 13.95-1.48-.53-.15-.2-.43-1.38.2-.34.71-.14.2.05 1.19.81.1.15.14.33v.15l-.14.86-.34.24Zm-1.15-.96 1.05.38.1-.48-.1-.19-1.05-.72-.29.05.3.96Z"/><path d="m196.75 8.34.38.29-.05.72 2.87-.1-.05.77 1.2-.24 1.05-.77-1.1-1.24-1.77-.05.15.28-2.68.34" opacity=".35"/><path fill-rule="nonzero" d="m199.95 10.3-.33-.28.05-.48-2.59.1-.29-.3v-.57l-.24-.19.15-.48 2.4-.33.18-.34 1.77.05.2.1 1.1 1.2-.05.38-1.2.81-1.15.34Zm0-1.34.29.3-.05.42.77-.14.76-.58-.81-.9-1.34-.06-.14.24-2.16.3.05.09v.43l2.63-.1Z"/><path d="m205.98 9.16-.67-.77-.43.33.43 1.11.67-.67" opacity=".35"/><path fill-rule="nonzero" d="m205.5 10.02-.43-.1-.48-1.1.1-.34.48-.33.33.05.67.76v.34l-.67.72Zm-.33-1.2.24.53.19-.2-.34-.38-.1.05Z"/><path d="m197.75 7-.57-.29-1.58.62.14.44 1.25-.63.14.39.72-.34-.1-.19" opacity=".35"/><path fill-rule="nonzero" d="m195.84 7.96-.39-.15-.14-.38.14-.34 1.58-.67h.24l.58.3.1.13.09.24-.15.34-.71.29-.34-.15-.05-.14-.95.53Zm1.29-.96.1.05.04.14.15-.05-.3-.14Z"/><path d="m199.04 6.28-.19.19.1.53.67-.05-.05-.43.14-.19-.28-.1-.39.05" opacity=".35"/><path fill-rule="nonzero" d="m199 7.29-.3-.2-.14-.52.1-.24.24-.2.14-.04.34-.05h.1l.28.1.14.38-.1.14.06.34-.24.29H199Zm.14-.72.05.14h.14v-.19l-.2.05Z"/><path d="m199.86 5.42 1.1 1.05-.05.24.91-.19-.14-.38-1.01-.58-.81-.14" opacity=".35"/><path fill-rule="nonzero" d="m200.96 7-.29-.29.05-.14-.96-.91.24-.44.91.15 1 .57.1.15.14.38-.19.38-1 .15Zm-.2-1.06.34.34.05.14.29-.04-.67-.44Z"/><path d="m203.97 34.27-.24-.67-2.92-.77-1 .15-1.92 1.58 4.46-.38.57.24-1.87 1.58.24.57.48-.09.53 1.2.67.52.86-.43-.19-1.58 1.29-.82.24.58.91-.1.33.87.1.33 1.34-.57.14-.96.43-.05-.19-.62-.95.14-.67-.53h-2.06l-.58-.19" opacity=".35"/><path fill-rule="nonzero" d="M203.11 38.44h-.29l-.67-.53-.1-.1-.42-1-.34.05-.28-.14-.24-.58.1-.29 1.52-1.34-.1-.05-4.4.39-.19-.48 1.92-1.58.14-.05 1.05-.15h.1l2.87.82.2.14.18.53.43.14h1.97l.14.05.58.48.86-.14.28.19.2.62-.24.34-.24.05-.1.76-.14.2-1.34.52-.34-.14-.38-1-.72.09-.29-.2-.1-.28-.9.57.2 1.4-.15.28-.77.43Zm-.62-.9.48.37.52-.28-.19-1.4.15-.23 1.34-.82.38.15.14.38.72-.1.29.15.38.96.91-.39.1-.86.24-.24h.14l-.05-.1-.72.1-.19-.05-.62-.48h-2.01l-.62-.19-.15-.14-.19-.53-2.68-.77-.9.15-1.2 1 3.63-.28h.15l.52.24.05.43-1.72 1.48.1.2.28-.05.29.14.43 1.15Z"/><path d="m206.51 37-.29.68 2.44-.15 1.15-1.01 2.54-1.34-1.29-.29-1.3.53-1 1.06h-.91l-1.34.52" opacity=".35"/><path fill-rule="nonzero" d="m132.86 102.05-.91-.34-1.44.2-.24-.1-1.3-1.35.15-.43 2.49-.57 1.05-.87.29-.04 1 .43 3.07-1.2.33.14.44.77-.1.34-1.68 1-.14.05-.81-.05-1.82 2.02z" opacity=".35"/><path fill-rule="nonzero" d="m206.22 37.96-.24-.38.29-.67.14-.15 1.44-.57h.77l1-1 1.3-.53h.14l1.29.28.05.48-2.54 1.34-1.1.96-.14.05-2.4.2Zm.48-.72-.1.2 1.97-.15 1.1-.96 1.96-1-.53-.1-1.14.48-.96 1-.2.1h-.85l-1.25.43Zm-73.84 64.81-.91-.34-1.44.2-.24-.1-1.3-1.34.15-.43 2.5-.58 1.04-.86.3-.05 1 .43 3.06-1.2.33.15.43.76-.1.34-1.67 1-.14.05-.81-.04-1.82 2h-.38Zm-.91-.86h.14l.81.33 1.77-1.96.2-.1.86.05 1.38-.82-.19-.33L134 99.5h-.19l-.95-.39-1.1.87-2.11.48.86.9 1.44-.18Z"/></g><path fill="#CF0A2C" fill-rule="nonzero" d="M26.14 34.73h4.55v6.23h5.79v-6.23h4.54v16.64h-4.54v-6.33h-5.79v6.33h-4.55zM43.8 43.1a8.48 8.48 0 0 1 8.61-8.71c3.35 0 5.5 1.41 6.94 3.45l-3.4 2.68c-.96-1.17-2-1.95-3.59-1.95-2.3 0-3.87 2-3.87 4.38V43c0 2.48 1.62 4.43 3.87 4.43 1.73 0 2.73-.83 3.69-2l3.4 2.48a8.25 8.25 0 0 1-7.23 3.75c-4.64.05-8.42-3.6-8.42-8.56Zm18.08-8.37h4.79l3.87 6.42 3.88-6.42h4.78v16.64h-4.49v-9.54l-4.17 6.52h-.09l-4.16-6.47v9.49h-4.41zm19.48 14.16 2.53-3.07a8.3 8.3 0 0 0 5.31 2c1.2 0 1.87-.44 1.87-1.12v-.05c0-.68-.53-1.07-2.77-1.6-3.5-.83-6.18-1.8-6.18-5.21v-.05c0-3.07 2.4-5.3 6.32-5.3 2.77 0 4.93.77 6.75 2.19l-2.25 3.26a8.05 8.05 0 0 0-4.6-1.66c-1.1 0-1.62.49-1.62 1.07v.05c0 .78.57 1.07 2.82 1.6 3.78.83 6.08 2.05 6.08 5.16v.05c0 3.4-2.64 5.4-6.6 5.4-2.88.05-5.65-.87-7.66-2.72Zm23.87-14.16h6.99c4.11 0 6.8 2.14 6.8 5.84v.05c0 3.94-2.97 5.98-7.04 5.98h-2.25v4.77h-4.55V34.73h.05Zm6.65 8.27c1.63 0 2.59-.88 2.59-2.14v-.05c0-1.41-1-2.19-2.63-2.19h-2.11V43h2.15Zm13.54-8.37h4.36l6.94 16.74h-4.84l-1.2-2.97h-6.3l-1.16 2.97h-4.78l6.98-16.74Zm3.97 10.17-1.81-4.72-1.87 4.72h3.68Zm9.38-10.07h7.75c2.5 0 4.21.68 5.31 1.8a5.26 5.26 0 0 1 1.44 3.9v.04a5.29 5.29 0 0 1-3.35 5.1l3.88 5.8h-5.22l-3.3-5.01h-1.96v5h-4.55V34.74Zm7.56 7.98c1.53 0 2.44-.78 2.44-2v-.05c0-1.3-.95-1.99-2.44-1.99h-2.96v3.99h2.96v.05Zm13.69-3.94h-4.88v-4.04h14.35v4.04h-4.88v12.6h-4.55v-12.6zm11.91-4.04h4.21l6.75 8.81v-8.81h4.49v16.64h-3.97l-6.98-9.1v9.1h-4.5zm18.76 0h13.15v3.94h-8.66v2.53h7.85v3.65h-7.85v2.63h8.81v3.94h-13.26V34.73zm16.07 0h7.75c2.49 0 4.21.68 5.31 1.8a5.26 5.26 0 0 1 1.44 3.9v.04a5.29 5.29 0 0 1-3.35 5.1l3.88 5.8h-5.22l-3.3-5.01h-1.96v5h-4.55V34.74Zm7.51 7.98c1.53 0 2.44-.78 2.44-2v-.05c0-1.3-.95-1.99-2.44-1.99h-2.96v3.99h2.96v.05Zm8.47 6.18 2.54-3.07a8.3 8.3 0 0 0 5.3 2c1.2 0 1.87-.44 1.87-1.12v-.05c0-.68-.52-1.07-2.77-1.6-3.5-.83-6.17-1.8-6.17-5.21v-.05c0-3.07 2.39-5.3 6.31-5.3 2.78 0 4.93.77 6.75 2.19l-2.25 3.26a8.05 8.05 0 0 0-4.6-1.66c-1.1 0-1.62.49-1.62 1.07v.05c0 .78.57 1.07 2.82 1.6 3.78.83 6.08 2.05 6.08 5.16v.05c0 3.4-2.63 5.4-6.6 5.4-2.87.05-5.65-.87-7.66-2.72Z"/><path fill="#231F20" fill-rule="nonzero" d="M49.15 59.36h-3.1v-1.59h7.97v1.59h-3.1v8.28H49.2v-8.28zm6.35-2.02h1.68v4a2.59 2.59 0 0 1 2.29-1.3c1.67 0 2.63 1.1 2.63 2.88v4.77h-1.67v-4.24c0-1.15-.58-1.83-1.58-1.83s-1.67.68-1.67 1.83v4.2H55.5V57.33Zm8.27 6.64c0-2.17 1.48-3.9 3.63-3.9 2.34 0 3.53 1.88 3.53 4 0 .14 0 .29-.04.48h-5.45c.2 1.2 1.05 1.88 2.15 1.88.81 0 1.43-.3 2-.87l1 .87a3.7 3.7 0 0 1-3 1.4 3.73 3.73 0 0 1-3.82-3.86Zm5.5-.58c-.1-1.1-.77-1.97-1.87-1.97-1.05 0-1.77.82-1.91 1.97h3.77Zm7.35-.67c0-2.8 2.15-5.15 5.16-5.15a5 5 0 0 1 5.1 5.1v.05c0 2.8-2.14 5.1-5.15 5.1a5 5 0 0 1-5.11-5.1Zm8.45 0c0-1.93-1.38-3.56-3.34-3.56s-3.3 1.59-3.3 3.46v.05c0 1.93 1.39 3.52 3.35 3.52 1.9.04 3.3-1.54 3.3-3.47Zm3.68-2.5h1.67v1.68c.48-1.1 1.34-1.88 2.63-1.83v1.83h-.1c-1.48 0-2.53.96-2.53 2.94v2.84h-1.67v-7.46Zm9.98 7.41v-.91a2.96 2.96 0 0 1-2.39 1.06c-1.38 0-2.62-.82-2.62-2.32v-.04c0-1.64 1.29-2.46 3-2.46.91 0 1.49.14 2.06.29v-.15c0-1-.62-1.58-1.81-1.58a5 5 0 0 0-2.1.48l-.48-1.35a6.1 6.1 0 0 1 2.81-.63c2.2 0 3.25 1.16 3.25 3.13v4.43h-1.72v.05Zm.05-3.08a4.34 4.34 0 0 0-1.67-.29c-1.05 0-1.67.43-1.67 1.16v.04c0 .73.62 1.11 1.43 1.11 1.1 0 1.96-.62 1.96-1.59v-.43h-.05Zm3.25-.58a3.84 3.84 0 0 1 3.82-3.95c1.39 0 2.3.53 2.96 1.3l-1.05 1.16c-.52-.53-1.05-.92-1.91-.92-1.24 0-2.15 1.06-2.15 2.36v.05c0 1.35.9 2.4 2.2 2.4.81 0 1.38-.38 1.9-.9l1.01 1a3.7 3.7 0 0 1-3 1.4 3.85 3.85 0 0 1-3.78-3.9Zm8.5-6.64h1.67v10.3h-1.67zm3.49 6.64c0-2.17 1.48-3.9 3.63-3.9 2.34 0 3.53 1.88 3.53 4 0 .14 0 .29-.05.48h-5.4c.2 1.2 1.06 1.88 2.16 1.88.8 0 1.43-.3 2-.87l1 .87a3.7 3.7 0 0 1-3 1.4 3.74 3.74 0 0 1-3.87-3.86Zm5.5-.58c-.1-1.1-.77-1.97-1.87-1.97-1.05 0-1.77.82-1.91 1.97h3.77Zm7.78-5.63h1.72v4.09h4.68v-4.09h1.72v9.87h-1.72V63.5h-4.68v4.14h-1.72zm10.22 4.96a5 5 0 0 1 5.06-5.15c1.82 0 2.92.62 3.82 1.54l-1.1 1.3a3.86 3.86 0 0 0-2.72-1.2c-1.86 0-3.25 1.54-3.25 3.46v.05c0 1.93 1.34 3.51 3.25 3.51 1.2 0 1.96-.48 2.82-1.3l1.1 1.11a5.05 5.05 0 0 1-3.97 1.74 4.89 4.89 0 0 1-5.01-5.06Zm10.75-4.96h1.81l2.96 4.67 2.96-4.67h1.82v9.87h-1.72v-7.08l-3.11 4.67h-.04l-3.06-4.62v7.08h-1.67v-9.92zm16.38 0h7.26v1.54h-5.54v2.55h4.92v1.54h-4.92v2.65h5.64v1.54h-7.36v-9.82zm11.27 6.12-2.63-3.66h1.87l1.72 2.45 1.72-2.45h1.81l-2.63 3.61 2.73 3.8h-1.87l-1.81-2.6-1.82 2.6h-1.81zm6.07-3.66h1.67v1.25a2.95 2.95 0 0 1 2.48-1.4c1.77 0 3.44 1.4 3.44 3.85v.05c0 2.46-1.67 3.85-3.44 3.85-1.2 0-2-.62-2.48-1.3v3.42h-1.67v-9.72Zm5.92 3.7c0-1.49-.95-2.4-2.1-2.4-1.15 0-2.15.96-2.15 2.4v.05c0 1.45 1 2.4 2.15 2.4 1.15-.04 2.1-.95 2.1-2.45Zm3.06.05c0-2.17 1.48-3.9 3.63-3.9 2.34 0 3.53 1.88 3.53 4 0 .14 0 .29-.05.48h-5.44c.2 1.2 1.05 1.88 2.15 1.88.81 0 1.43-.3 2-.87l1 .87a3.7 3.7 0 0 1-3 1.4 3.7 3.7 0 0 1-3.82-3.86Zm5.44-.58c-.1-1.1-.76-1.97-1.86-1.97-1.05 0-1.77.82-1.91 1.97h3.77Zm3.39-3.17h1.68v1.68c.47-1.1 1.33-1.88 2.62-1.83v1.83h-.1c-1.47 0-2.52.96-2.52 2.94v2.84h-1.68v-7.46Zm6.17 5.39v-3.95H205v-1.5h.96v-2.06h1.67v2.07h2v1.49h-2v3.66c0 .67.33.91.9.91.39 0 .72-.1 1.06-.24v1.4a3 3 0 0 1-1.53.39c-1.24 0-2.1-.53-2.1-2.17Zm4.77 1.06.77-1.16a4 4 0 0 0 2.43.92c.72 0 1.15-.3 1.15-.82v-.05c0-.58-.76-.77-1.67-1.06-1.1-.29-2.3-.77-2.3-2.17v-.04c0-1.4 1.15-2.27 2.63-2.27.9 0 1.91.34 2.72.87l-.66 1.2a4.4 4.4 0 0 0-2.1-.72c-.67 0-1.06.29-1.06.77v.05c0 .53.82.77 1.68 1.06 1.1.34 2.29.82 2.29 2.17v.04c0 1.6-1.2 2.36-2.72 2.36a5.76 5.76 0 0 1-3.16-1.15Z"/></g></svg>