<svg xmlns="http://www.w3.org/2000/svg" viewBox="25 34 213 37"><path fill="#fff" d="M26 34.7h4.6V41h5.8v-6.3H41v16.7h-4.5V45h-5.8v6.4H26zm17.7 8.4a8.5 8.5 0 0 1 8.6-8.7 8 8 0 0 1 7 3.4l-3.5 2.7c-1-1-2-2-3.5-2-2.3 0-4 2-4 4.5s1.7 4.4 4 4.4c1.7 0 2.7-.8 3.7-2l3.3 2.5a8.3 8.3 0 0 1-7.2 3.8 8.3 8.3 0 0 1-8.4-8.6Zm18-8.4h5l3.8 6.5 4-6.5h4.7v16.7h-4.5v-9.6l-4.2 6.6-4.2-6.5v9.5h-4.4zM81.5 49l2.5-3a8.3 8.3 0 0 0 5.3 2c1.2 0 2-.5 2-1.2s-.6-1-2.8-1.6c-3.5-1-6.2-1.8-6.2-5.3 0-3 2.4-5.3 6.3-5.3 2.8 0 5 .8 6.8 2.2L93 40a8 8 0 0 0-4.6-1.6c-1 0-1.6.5-1.6 1v.1c0 .8.6 1 2.8 1.6 3.8.8 6 2 6 5.2 0 3.4-2.6 5.4-6.6 5.4a11 11 0 0 1-7.6-2.7Zm23.8-14.2h7c4 0 6.8 2.2 6.8 6 0 4-3 6-7 6h-2.3v4.8h-4.5V34.7ZM112 43c1.6 0 2.6-1 2.6-2 0-1.5-1-2.3-2.7-2.3h-2V43h2Zm13.5-8.4h4.4l7 16.8h-5l-1-3h-6.3l-1.2 3h-4.8l7-16.8Zm4 10.2-1.8-4.7-2 4.7h3.7Zm9.4-10h7.7c2.5 0 4.2.6 5.3 1.7a5.3 5.3 0 0 1 1.5 4 5.3 5.3 0 0 1-3.4 5l4 6h-5.2l-3.3-5h-2v5H139V34.7Zm7.5 8c1.6 0 2.5-1 2.5-2 0-1.3-1-2-2.5-2h-3v4h3Zm13.7-4h-5v-4h14.4v4h-5v12.6H160V38.8zm12-4h4l6.8 8.7v-8.8h4.5v16.7h-4l-7-9v9H172zm18.7 0h13v4h-8.6v2.5h7.8V45h-7.8v2.6h8.8v4h-13.3v-17zm16 0h7.8c2.5 0 4.2.6 5.3 1.7a5.3 5.3 0 0 1 1.5 4 5.3 5.3 0 0 1-3.4 5l4 6h-5.2l-3.3-5h-2v5H207V34.7Zm7.6 8c1.5 0 2.4-1 2.4-2 0-1.3-1-2-2.4-2h-3v4h3Zm8.4 6 2.6-3a8.3 8.3 0 0 0 5.3 2c1.2 0 1.8-.4 1.8-1 0-.7-.5-1-2.7-1.6-3.5-1-6.2-1.8-6.2-5.3 0-3 2.4-5.3 6.3-5.3 2.8 0 5 .8 6.8 2.2l-2.3 3.2a8 8 0 0 0-4.6-1.6c-1 0-1.6.5-1.6 1v.1c0 .8.6 1 2.8 1.6 3.8.8 6 2 6 5.2 0 3.4-2.6 5.4-6.6 5.4a11 11 0 0 1-7.7-2.7Z"/><path fill="#fff" d="M49 59.4h-3v-1.6h8v1.6h-3.2v8.2h-1.7v-8.2zm6.4-2h1.7v4a2.6 2.6 0 0 1 2.3-1.3c1.6 0 2.6 1 2.6 2.8v4.8h-1.7v-4.2c0-1.2-.5-2-1.5-2s-1.7.7-1.7 2v4.2h-1.7V57.3Zm8.3 6.6c0-2.2 1.4-4 3.6-4 2.3 0 3.5 2 3.5 4v.5h-5.5c.2 1.2 1 2 2.2 1.9.8 0 1.4-.3 2-1l1 1a3.7 3.7 0 0 1-3 1.4 3.7 3.7 0 0 1-3.8-4Zm5.5-.6c-.1-1-.8-2-2-2-1 0-1.8.9-2 2h4Zm7.3-.6a5 5 0 0 1 5.2-5.2 5 5 0 0 1 5 5 5 5 0 0 1-5 5 5 5 0 0 1-5.2-5Zm8.5 0c0-2-1.4-3.6-3.4-3.6s-3.3 1.6-3.3 3.4v.1c0 2 1.4 3.5 3.4 3.5s3.3-1.5 3.3-3.5Zm3.6-2.5h1.7v1.6c.5-1 1.4-1.8 2.6-1.8v1.8c-1.5 0-2.6 1-2.6 3v2.8h-1.7v-7.4Zm10 7.4v-1a3 3 0 0 1-2.4 1c-1.3 0-2.6-.8-2.6-2.3 0-1.7 1.3-2.5 3-2.5 1 0 1.5.1 2 .3V63c0-1-.5-1.5-1.7-1.5a5 5 0 0 0-2.1.4l-.5-1.3a6 6 0 0 1 2.8-.7c2.2 0 3.3 1.2 3.3 3.2v4.4h-1.8Zm0-3a4.3 4.3 0 0 0-1.6-.3c-1 0-1.7.4-1.7 1 0 .8.7 1.2 1.5 1.2 1 0 2-.6 2-1.6v-.4Zm3.3-.6a3.8 3.8 0 0 1 4-4c1.3 0 2.2.6 3 1.3l-1 1.2c-.6-.5-1-1-2-1-1.2 0-2 1-2 2.4v.1c0 1.3.9 2.4 2.2 2.4.8 0 1.4-.4 2-1l1 1a3.7 3.7 0 0 1-3 1.4A4 4 0 0 1 102 64Zm8.5-6.6h1.7v10.3h-1.7zM114 64c0-2.2 1.5-4 3.6-4 2.4 0 3.6 2 3.6 4v.5h-5.5c.2 1.2 1 2 2.2 1.9.8 0 1.4-.3 2-1l1 1a3.7 3.7 0 0 1-3 1.4A3.7 3.7 0 0 1 114 64Zm5.5-.6c0-1-.8-2-2-2-1 0-1.7.9-2 2h3.8Zm7.8-5.6h1.7v4h4.7v-4h1.7v10h-1.7v-4.2H129v4h-1.7zm10.2 5a5 5 0 0 1 5-5.2 5 5 0 0 1 4 1.5l-1 1.3a4 4 0 0 0-2.7-1.2c-2 0-3.3 1.6-3.3 3.5 0 2 1.4 3.6 3.3 3.6 1.2 0 2-.5 2.8-1.3l1 1a5 5 0 0 1-4 1.8 5 5 0 0 1-5-5Zm10.8-5h1.8l3 4.7 3-4.7h1.8v10h-1.7v-7l-3 4.6-3-4.6v7h-1.7v-10zm16.3 0h7.3v1.5h-5.5V62h5v1.5h-5v2.7h5.7v1.5h-7.4v-9.8zm11.3 6-2.6-3.7h2l1.7 2.5 1.7-2.5h1.8l-2.6 3.7 2.7 3.8h-2l-1.8-2.6-1.8 2.6h-1.8zm6-3.7h1.8v1.3a3 3 0 0 1 2.4-1.4c1.8 0 3.5 1.4 3.5 4s-1.7 4-3.5 4a3 3 0 0 1-2.4-1.4V70H182v-9.8Zm6 3.7c0-1.4-1-2.3-2-2.3-1.2 0-2.2 1-2.2 2.4s1 2.4 2 2.4c1.2 0 2-1 2-2.5Zm3 0c0-2.2 1.5-4 3.7-4 2.3 0 3.5 2 3.5 4v.5h-5.5c.2 1.2 1 2 2.2 1.9.8 0 1.4-.3 2-1l1 1a3.7 3.7 0 0 1-3 1.4A3.7 3.7 0 0 1 191 64Zm5.5-.6c0-1-.8-2-2-2-1 0-1.7.9-2 2h3.8Zm3.4-3h1.7v1.6c.4-1 1.3-1.8 2.6-1.8v1.8c-1.5 0-2.5 1-2.5 3v2.8h-1.7v-7.4Zm6.2 5.3v-4h-1v-1.4h1v-2h1.6v2h2v1.5h-2v3.6c0 .7.4 1 1 1a2 2 0 0 0 1-.3v1.4a3 3 0 0 1-1.5.4c-1.3 0-2-.5-2-2.2Zm4.7 1.1.8-1.2a4 4 0 0 0 2.4 1c.8 0 1.2-.3 1.2-1 0-.6-.8-.8-1.7-1-1-.4-2.3-.8-2.3-2.2 0-1.5 1.2-2.3 2.7-2.3.8 0 1.9.3 2.7.8l-.7 1.2a4.4 4.4 0 0 0-2-.7c-.8 0-1.2.3-1.2.8 0 .6.9.8 1.7 1 1.1.4 2.3.9 2.3 2.3 0 1.6-1.2 2.4-2.7 2.4a5.8 5.8 0 0 1-3.2-1.2Z"/></svg>